<svg width="52" height="52" viewBox="0 0 52 52" xmlns="http://www.w3.org/2000/svg"><title>acl-disable-in-out</title><g fill-rule="evenodd"><path d="M22.312 43.725l-.033-.032-7-8.002a.99.99 0 0 1-.002-1.382l7.002-7.998A.994.994 0 0 1 23 26a1 1 0 0 1 .72 1.694L17.378 35l4.107 4.734c.074 1.397.36 2.738.828 3.99zm20.92-15.47l.49-.56A1 1 0 0 0 43 26a.994.994 0 0 0-.72.308l-.736.84c.59.327 1.155.697 1.687 1.106zM25.72 14.31l-7-8.004A1 1 0 0 0 17 7c0 .27.11.512.282.69l6.34 7.31-6.343 7.306A1 1 0 0 0 18 24a.99.99 0 0 0 .718-.31l7.003-7.997a.99.99 0 0 0-.002-1.384zm-10 0l-7-8.004A1 1 0 0 0 7 7c0 .27.11.512.282.69l6.34 7.31-6.343 7.306A1 1 0 0 0 8 24a.99.99 0 0 0 .718-.31l7.003-7.997a.99.99 0 0 0-.002-1.384zm20 0l-7-8.004A1 1 0 0 0 27 7c0 .27.11.512.282.69l6.34 7.31-6.343 7.306A1 1 0 0 0 28 24a.99.99 0 0 0 .718-.31l7.003-7.997a.99.99 0 0 0-.002-1.384zm10 0l-7-8.004A1 1 0 0 0 37 7c0 .27.11.512.282.69l6.34 7.31-6.343 7.306A1 1 0 0 0 38 24a.99.99 0 0 0 .718-.31l7.003-7.997a.99.99 0 0 0-.002-1.384zM5.282 35.69l6.997 8.003A1 1 0 0 0 14 43a.99.99 0 0 0-.282-.69L7.378 35l6.343-7.306A1 1 0 0 0 13 26a.994.994 0 0 0-.718.31L5.28 34.306a.99.99 0 0 0 .003 1.384z"/><path d="M35 29c-5.523 0-10 4.477-10 10s4.477 10 10 10 10-4.477 10-10-4.477-10-10-10zM22.93 39c0-6.667 5.403-12.07 12.07-12.07 6.667 0 12.07 5.403 12.07 12.07 0 6.667-5.403 12.07-12.07 12.07-6.667 0-12.07-5.403-12.07-12.07z"/><path d="M36.414 39l4.293-4.293a1 1 0 1 0-1.414-1.414L35 37.586l-4.293-4.293a1 1 0 0 0-1.414 1.414L33.586 39l-4.293 4.293a1 1 0 0 0 1.414 1.414L35 40.414l4.293 4.293a1 1 0 0 0 1.414-1.414L36.414 39z"/></g></svg>