<svg width="54" height="54" viewBox="0 0 54 54" xmlns="http://www.w3.org/2000/svg"><title>acl-disable-in</title><g fill-rule="evenodd"><path d="M41.903 26.816L43.623 25 26.283 6.69A.99.99 0 0 1 26 6a1 1 0 0 1 1.72-.693l18 19.003a.99.99 0 0 1 .003 1.383L43.68 27.85a13.524 13.524 0 0 0-1.774-1.034zm-9.074-.978L33.62 25 16.282 6.69A.99.99 0 0 1 16 6a1 1 0 0 1 1.72-.693l18 19.003a.99.99 0 0 1 .166 1.155 13.61 13.61 0 0 0-3.055.373zM22.685 36.543l-6.408 6.763A1 1 0 0 0 17 45a.99.99 0 0 0 .718-.31l4.762-5.025a13.76 13.76 0 0 1 .207-3.122zm3.03-12.234L7.722 5.305A1 1 0 0 0 6 6c0 .27.11.512.282.69L23.622 25 6.28 43.306A1 1 0 0 0 7 45a.99.99 0 0 0 .718-.31L25.72 25.694a.99.99 0 0 0-.003-1.384zM36 29c-5.523 0-10 4.477-10 10s4.477 10 10 10 10-4.477 10-10-4.477-10-10-10zM23.93 39c0-6.667 5.403-12.07 12.07-12.07 6.667 0 12.07 5.403 12.07 12.07 0 6.667-5.403 12.07-12.07 12.07-6.667 0-12.07-5.403-12.07-12.07z"/><path d="M37.414 39l4.293-4.293a1 1 0 1 0-1.414-1.414L36 37.586l-4.293-4.293a1 1 0 0 0-1.414 1.414L34.586 39l-4.293 4.293a1 1 0 0 0 1.414 1.414L36 40.414l4.293 4.293a1 1 0 0 0 1.414-1.414L37.414 39z"/></g></svg>