<svg width="50" height="50" viewBox="0 0 50 50" xmlns="http://www.w3.org/2000/svg"><title>acl-disable-none</title><path d="M25.718 14.31L18.72 6.306A1 1 0 0 0 17 7c0 .27.11.512.282.69l6.34 7.31-6.343 7.306A1 1 0 0 0 18 24a.99.99 0 0 0 .718-.31l7.003-7.997a.99.99 0 0 0-.002-1.384zm-10 0L8.72 6.306A1 1 0 0 0 7 7c0 .27.11.512.282.69l6.34 7.31-6.343 7.306A1 1 0 0 0 8 24a.99.99 0 0 0 .718-.31l7.003-7.997a.99.99 0 0 0-.002-1.384zm20 0L28.72 6.306A1 1 0 0 0 27 7c0 .27.11.512.282.69l6.34 7.31-6.343 7.306A1 1 0 0 0 28 24a.99.99 0 0 0 .718-.31l7.003-7.997a.99.99 0 0 0-.002-1.384zm10 0L38.72 6.306A1 1 0 0 0 37 7c0 .27.11.512.282.69l6.34 7.31-6.343 7.306A1 1 0 0 0 38 24a.99.99 0 0 0 .718-.31l7.003-7.997a.99.99 0 0 0-.002-1.384zM15.282 35.69l6.997 8.003A1 1 0 0 0 24 43a.99.99 0 0 0-.282-.69L17.378 35l6.343-7.306A1 1 0 0 0 23 26a.994.994 0 0 0-.718.31l-7.003 7.997a.99.99 0 0 0 .002 1.384zm-10 0l6.997 8.003A1 1 0 0 0 14 43a.99.99 0 0 0-.282-.69L7.378 35l6.343-7.306A1 1 0 0 0 13 26a.994.994 0 0 0-.718.31L5.28 34.306a.99.99 0 0 0 .003 1.384zm20 0l6.997 8.003A1 1 0 0 0 34 43a.99.99 0 0 0-.282-.69L27.378 35l6.343-7.306A1 1 0 0 0 33 26a.994.994 0 0 0-.718.31l-7.003 7.997a.99.99 0 0 0 .002 1.384zm10 0l6.997 8.003A1 1 0 0 0 44 43a.99.99 0 0 0-.282-.69L37.378 35l6.343-7.306A1 1 0 0 0 43 26a.994.994 0 0 0-.718.31l-7.003 7.997a.99.99 0 0 0 .002 1.384z" fill-rule="evenodd"/></svg>