<svg width="54" height="54" viewBox="0 0 54 54" xmlns="http://www.w3.org/2000/svg"><title>acl-disable-out</title><g fill-rule="evenodd"><path d="M23.28 43.638L6.282 25.69a.99.99 0 0 1-.003-1.383l18-18.997A.994.994 0 0 1 25 5a1 1 0 0 1 .72 1.694L8.378 25l14.117 14.905c.086 1.303.357 2.556.786 3.733zm.364-10.174l-7.362-7.773a.99.99 0 0 1-.003-1.382l18-18.998A.994.994 0 0 1 35 5a1 1 0 0 1 .72 1.694L18.378 25l6.273 6.623c-.38.584-.717 1.2-1.005 1.84zm4.682-5.615l-2.044-2.16a.99.99 0 0 1-.003-1.384l18-18.996A.994.994 0 0 1 45 5a1 1 0 0 1 .72 1.694L28.378 25l1.72 1.816c-.618.3-1.21.646-1.77 1.033zM36 29c-5.523 0-10 4.477-10 10s4.477 10 10 10 10-4.477 10-10-4.477-10-10-10zM23.93 39c0-6.667 5.403-12.07 12.07-12.07 6.667 0 12.07 5.403 12.07 12.07 0 6.667-5.403 12.07-12.07 12.07-6.667 0-12.07-5.403-12.07-12.07z"/><path d="M37.414 39l4.293-4.293a1 1 0 1 0-1.414-1.414L36 37.586l-4.293-4.293a1 1 0 0 0-1.414 1.414L34.586 39l-4.293 4.293a1 1 0 0 0 1.414 1.414L36 40.414l4.293 4.293a1 1 0 0 0 1.414-1.414L37.414 39z"/></g></svg>