<svg id="Layer_1" xmlns="http://www.w3.org/2000/svg" width="64" height="64" viewBox="0 0 64 64"><style>.st0{fill:#010101;}</style><path class="st0" d="M60 35c0 .3-.1.5-.3.7l-6 6c-.2.2-.4.3-.7.3-.6 0-1-.4-1-1 0-.3.1-.5.3-.7l4.3-4.3H49c-2.8 0-5-2.2-5-5v-8c0-1.7-1.3-3-3-3s-3 1.3-3 3v18c0 2.8-2.2 5-5 5s-5-2.2-5-5V23c0-1.7-1.3-3-3-3s-3 1.3-3 3v18c0 2.8-2.2 5-5 5s-5-2.2-5-5v-6c0-1.7-1.3-3-3-3H5c-.6 0-1-.4-1-1s.4-1 1-1h4c2.8 0 5 2.2 5 5v6c0 1.7 1.3 3 3 3s3-1.3 3-3V23c0-2.8 2.2-5 5-5s5 2.2 5 5v18c0 1.7 1.3 3 3 3s3-1.3 3-3V23c0-2.8 2.2-5 5-5s5 2.2 5 5c0 .3-.1.7-.1 1h.1v7c0 1.7 1.3 3 3 3h7.6l-4.3-4.3c-.2-.2-.3-.4-.3-.7 0-.6.4-1 1-1 .3 0 .5.1.7.3l6 6c.2.2.3.4.3.7z"/></svg>