<svg xmlns="http://www.w3.org/2000/svg" viewBox="0 0 64 64"><path fill-rule="evenodd" clip-rule="evenodd" d="M49.4 17.3l-9.2 22.3c-.5 1.1-.9 2-1.2 3-.3 1-.4 1.9-.2 2.6.1.7.1 1 .7 1.7.4.6 1.5.6 2.6.6 1.7 0 3.4-.4 5.2-1.5 1.9-1 3.5-2.4 5-4.2 1.6-1.8 2.8-3.8 3.8-6.3s1.4-5 1.4-7.8c0-3.2-.5-6.1-1.8-8.8-1.3-2.7-2.9-4.9-5.2-6.8-2.2-1.9-4.8-3.4-7.9-4.5-3-1.1-6.2-1.3-9.7-1.3-4 0-7.7.6-11.1 1.9-3.4 1.4-6.1 3.1-8.6 5.5S8.7 18.8 7.3 22C6 25.4 5.5 28.6 5.5 32.3c0 4.4.6 8.2 2.1 11.6 1.5 3.3 3.6 5.8 6.1 8.1 2.6 2.2 5.2 3.9 8.6 5.1 3.4 1.1 6.9 1.5 10.7 1.5 2.5 0 4.8-.1 7.1-.7s4.3-1.4 6.4-2.5c2-1.1 3.9-2.3 5.6-3.8 1.7-1.5 3-3 4.3-4.7h2.2c-1.3 2.1-2.9 3.9-4.8 5.7-1.9 1.7-4 3.1-6.2 4.3-2.2 1.2-4.6 2.1-7.1 2.7-2.5.6-5 1-7.5 1-3.6 0-7.2-.5-10.8-1.6-3.5-1.1-6.7-2.8-9.5-5.1C10 51.5 7.8 48.6 6 45c-1.7-3.6-2.6-7.8-2.6-12.7 0-4 .8-7.7 2.3-11.1 1.6-3.4 3.7-6.3 6.4-8.8C14.9 9.9 18 8 21.6 6.6 25.2 5.2 29 4.5 33 4.5c3.6 0 7.1.5 10.3 1.6 3.2 1.1 6 2.6 8.4 4.6 2.4 2 4.3 4.5 5.7 7.4 1.4 2.9 2.1 6.1 2.1 9.7 0 3-.5 5.8-1.6 8.4-1.1 2.6-2.5 4.9-4.2 6.9-1.7 2-3.6 3.5-5.7 4.6-2.1 1.1-4.1 1.8-6.1 1.8-1.6 0-2.9-.4-3.9-1.3s-1.4-2.2-1.1-3.6c-1.5 2-3.3 3.3-5.3 3.9-2 .6-3.9 1-5.8 1-1.6 0-3-.4-4.4-1-1.4-.6-2.5-1.4-3.5-2.4s-1.8-2.2-2.4-3.6c-.6-1.4-1-2.8-1-4.3 0-2.4.6-4.9 1.5-7.6.9-2.6 2.2-5 3.9-7.2 1.7-2.2 3.7-4 6.1-5.5 2.4-1.4 5-2.2 7.9-2.2 2.6 0 5 .7 7 1.8 2.1 1.2 3.5 2.8 4.2 4.8h.2l2-5.1h2.1zm-6.8 4c-.8-.9-1.7-1.7-2.7-2.3-1-.5-1.9-1-3-1.2-1.1-.2-2.2-.3-3.2-.3-2.6 0-4.8.7-6.9 2.1-2.2 1.4-3.9 3-5.4 5.1-1.5 2.1-2.7 4.3-3.6 6.7-.8 2.6-1.3 4.6-1.3 6.8 0 1.4.4 2.6.9 3.8.5 1.2 1.1 2 1.9 2.9.9.9 1.7 1.5 2.9 2s2.5.6 3.9.6c1.1 0 2.3-.1 3.5-.3 1.2-.3 2-.7 3.1-1.4s2.1-1.6 3.1-2.8c1-1.2 1.8-2.5 2.8-4.5l5.5-13.6c-.3-1.3-.7-2.7-1.5-3.6z"/></svg>