<svg xmlns="http://www.w3.org/2000/svg" width="64" height="64" viewBox="0 0 64 64"><path d="M56.2 46c-2 3.4-7.6 4.2-14.6 2.7C39.4 55.6 35.9 60 32 60s-7.4-4.5-9.6-11.3c-7 1.5-12.7.7-14.6-2.7-2-3.4.1-8.7 5-14-4.9-5.3-7-10.6-5-14s7.6-4.2 14.6-2.7C24.6 8.4 28.1 4 32 4s7.4 4.5 9.6 11.3c7-1.5 12.7-.7 14.6 2.7 2 3.4-.1 8.7-5 14 4.9 5.3 7 10.6 5 14zm-1.7-1c1.6-2.7-.3-7.1-4.6-11.6-1.8 1.8-3.9 3.6-6.3 5.4-.3 2.9-.8 5.7-1.5 8.1 6.1 1.4 10.8.8 12.4-1.9zm-10.6-8.9c1.8-1.3 3.4-2.7 4.8-4.1-1.4-1.4-3-2.8-4.8-4.1.1 1.3.1 2.7.1 4.1 0 1.4 0 2.8-.1 4.1zm-2.4 4.1c-1.1.7-2.3 1.5-3.5 2.2s-2.4 1.3-3.6 1.9c2.1.9 4 1.6 5.9 2.1.5-1.9.9-4 1.2-6.2zM32 58c3.2 0 6-3.8 7.8-9.8-2.5-.7-5.1-1.6-7.8-2.8-2.7 1.2-5.3 2.1-7.8 2.8 1.8 6 4.6 9.8 7.8 9.8zm-8.3-11.6c1.9-.5 3.9-1.2 5.9-2.1-1.2-.6-2.4-1.2-3.6-1.9s-2.4-1.4-3.5-2.2c.3 2.2.7 4.3 1.2 6.2zM9.5 19c-1.6 2.7.3 7.1 4.6 11.6 1.8-1.8 3.9-3.6 6.3-5.4.3-2.9.8-5.7 1.5-8.1-6.1-1.4-10.8-.8-12.4 1.9zm10.6 8.9c-1.8 1.3-3.4 2.7-4.8 4.1 1.4 1.4 3 2.8 4.8 4.1-.1-1.3-.1-2.7-.1-4.1s0-2.8.1-4.1zm.3 10.8c-2.4-1.7-4.5-3.5-6.3-5.4-4.2 4.6-6.1 8.9-4.6 11.6 1.6 2.7 6.3 3.3 12.4 1.9-.7-2.4-1.2-5.2-1.5-8.1zm2.1-14.9c1.1-.7 2.3-1.5 3.5-2.2s2.4-1.3 3.6-1.9c-2.1-.9-4-1.6-5.9-2.1-.5 1.9-.9 4-1.2 6.2zM32 6c-3.2 0-6 3.8-7.8 9.8 2.5.7 5.1 1.6 7.8 2.8 2.7-1.2 5.3-2.1 7.8-2.8C38 9.8 35.2 6 32 6zm8.3 11.6c-1.9.5-3.9 1.2-5.9 2.1 1.2.6 2.4 1.2 3.6 1.9s2.4 1.4 3.5 2.2c-.3-2.2-.7-4.3-1.2-6.2zm1.5 8.8c-1.5-1-3.1-2.1-4.8-3-1.7-1-3.4-1.8-5-2.6-1.6.8-3.3 1.6-5 2.6s-3.2 2-4.7 3c-.2 1.8-.3 3.7-.3 5.7 0 1.9.1 3.8.2 5.6 1.5 1 3.1 2.1 4.8 3 1.7 1 3.4 1.8 5 2.6 1.6-.8 3.3-1.6 5-2.6s3.2-2 4.7-3c.2-1.8.3-3.7.3-5.7 0-1.9-.1-3.8-.2-5.6zM54.5 19c-1.6-2.7-6.3-3.3-12.4-1.9.7 2.5 1.2 5.2 1.5 8.2 2.4 1.7 4.5 3.5 6.3 5.4 4.3-4.6 6.2-9 4.6-11.7zM32 34c-1.1 0-2-.9-2-2s.9-2 2-2 2 .9 2 2-.9 2-2 2z"/></svg>