<svg id="Layer_1" xmlns="http://www.w3.org/2000/svg" width="64" height="64" viewBox="0 0 64 64"><style>.st0{fill:#010101;}</style><path class="st0" d="M31.5 60.5c-15.5 0-28-12.5-28-28s12.5-28 28-28 28 12.5 28 28-12.5 28-28 28zm0-54c-14.4 0-26 11.6-26 26 0 7 2.8 13.4 7.3 18.1 2.3-1.8 5.2-3 9.2-4.8l1.3-.6c3.9-4.2-.8-10.9-1.2-11.5-.4-.4-2.1-2.5-1.3-5.6-.4-1.5-2.1-7.9 1-12.2 1.8-2.5 4.8-3.8 8.9-3.8 3.9-.9 6.9-.3 9 1.9 3.5 3.7 2.9 10.6 2.2 13 .3.9.6 3-1.2 6.5-.3.6-.6 1.2-1 1.8-2.3 4.2-3.6 7.1-.4 9.8 1.1.3 6.1 2 10.4 5.8 4.7-4.7 7.6-11.2 7.6-18.4.2-14.4-11.4-26-25.8-26z"/></svg>