<svg id="Layer_1" xmlns="http://www.w3.org/2000/svg" width="64" height="64" viewBox="0 0 64 64"><style>.st0{fill-rule:evenodd;clip-rule:evenodd;}</style><path class="st0" d="M57.2 23.5L32 48.7l-.3.3-9.2 9.2c-3.1 3.1-8 3.1-11.1 0l-5.6-5.6c-3.1-3.1-3.1-8 0-11.1l9.3-9.3.3-.3L40.5 6.8c3.1-3.1 8-3.1 11.1 0l5.6 5.6c3.1 3 3.1 8 0 11.1zM15.3 34.8l-8.1 8.1c-2.3 2.3-2.3 6 0 8.3l5.6 5.6c2.3 2.3 6 2.3 8.3 0l8.1-8.1-13.9-13.9zm1.4-1.4l13.9 13.9 15.7-15.7-13.9-13.9-15.7 15.7zm39.1-19.7l-5.6-5.6c-2.3-2.3-6-2.3-8.3 0l-8.1 8.1 13.9 13.9 8.1-8.1c2.3-2.2 2.3-6 0-8.3zM39.5 34.5c-1.1 0-2-.9-2-2s.9-2 2-2 2 .9 2 2-.9 2-2 2zm-4-4c-1.1 0-2-.9-2-2s.9-2 2-2 2 .9 2 2-.9 2-2 2zm-4-4c-1.1 0-2-.9-2-2s.9-2 2-2 2 .9 2 2-.9 2-2 2zm-4 4c-1.1 0-2-.9-2-2s.9-2 2-2 2 .9 2 2-.9 2-2 2zm-4 4c-1.1 0-2-.9-2-2s.9-2 2-2 2 .9 2 2-.9 2-2 2zm4 0c1.1 0 2 .9 2 2s-.9 2-2 2-2-.9-2-2 .9-2 2-2zm4 0c-1.1 0-2-.9-2-2s.9-2 2-2 2 .9 2 2-.9 2-2 2zm0 4c1.1 0 2 .9 2 2s-.9 2-2 2-2-.9-2-2 .9-2 2-2zm4-4c1.1 0 2 .9 2 2s-.9 2-2 2-2-.9-2-2 .9-2 2-2z"/></svg>