<svg xmlns="http://www.w3.org/2000/svg" width="64" height="64" viewBox="0 0 64 64"><path d="M47 10h-3v16.6c2.3 2.3 16 16.3 16 25.4 0 4.4-3.6 8-8 8H12c-4.4 0-8-3.6-8-8 0-9.1 13.7-23.1 16-25.4V10h-3c-.6 0-1-.4-1-1V5c0-.6.4-1 1-1h30c.6 0 1 .4 1 1v4c0 .6-.4 1-1 1zM6 52c0 3.3 2.7 6 6 6h40c3.3 0 6-2.7 6-6 0-8.8-14.9-23.5-15.7-24.3-.2-.2-.3-.4-.3-.7v-7.1c-1.6.8-3.2 1.1-4.5 1.1-3.6 0-6.1-1.9-6.1-2l-.1-.1s-2.6-2.3-9.2 0v8c0 .3-.1.5-.3.7C20.9 28.5 6 43.2 6 52zm36-34.3V10H22v6.9c7-2.2 10.1.2 10.6.7.3.2 4.4 3.1 9.4.1zM46 6H18v2h28V6zM27 38c2.2 0 4 1.8 4 4s-1.8 4-4 4-4-1.8-4-4 1.8-4 4-4zm0 6c1.1 0 2-.9 2-2s-.9-2-2-2-2 .9-2 2 .9 2 2 2zm0-14c0-3.3 2.7-6 6-6s6 2.7 6 6-2.7 6-6 6-6-2.7-6-6zm6 4c2.2 0 4-1.8 4-4s-1.8-4-4-4-4 1.8-4 4 1.8 4 4 4zm3 12c1.7 0 3 1.3 3 3s-1.3 3-3 3-3-1.3-3-3 1.3-3 3-3zm0 4c.6 0 1-.4 1-1s-.4-1-1-1-1 .4-1 1 .4 1 1 1z"/></svg>