<svg id="Layer_1" xmlns="http://www.w3.org/2000/svg" width="64" height="64" viewBox="0 0 64 64"><style>.st0{fill:#1A1918;}</style><title>blank-app</title><g id="Page-1"><path id="blank-app" class="st0" d="M23.4 3.5h17.3c5.7 0 8.6 0 11.7 1 3.4 1.2 6 3.9 7.2 7.2 1 3.1 1 5.9 1 11.7v17.3c0 5.7 0 8.6-1 11.7-1.2 3.4-3.9 6-7.2 7.2-3.1 1-5.9 1-11.7 1H23.4c-5.7 0-8.6 0-11.7-1-3.4-1.2-6-3.9-7.2-7.2-1-3.1-1-5.9-1-11.7V23.4c0-5.7 0-8.6 1-11.7 1.2-3.4 3.9-6 7.2-7.2 3.1-1 6-1 11.7-1zm.6 2h16c5.3 0 8 0 10.8.9 3.1 1.1 5.6 3.6 6.7 6.7.9 2.9.9 5.5.9 10.8v16c0 5.3 0 8-.9 10.8-1.1 3.1-3.6 5.6-6.7 6.7-2.9.9-5.5.9-10.8.9H24c-5.3 0-8 0-10.8-.9-3.2-.9-5.7-3.4-6.8-6.5-.9-2.9-.9-5.6-.9-10.9V24c0-5.3 0-8 .9-10.8C7.5 10 10 7.5 13.1 6.4c2.9-.9 5.6-.9 10.9-.9zm8 47c11.3 0 20.5-9.2 20.5-20.5S43.3 11.5 32 11.5 11.5 20.7 11.5 32 20.7 52.5 32 52.5zm0-2c10.2 0 18.5-8.3 18.5-18.5S42.2 13.5 32 13.5 13.5 21.8 13.5 32 21.8 50.5 32 50.5z"/></g></svg>