<svg id="Layer_1" xmlns="http://www.w3.org/2000/svg" width="64" height="64" viewBox="0 0 64 64"><style>.st0{fill-rule:evenodd;clip-rule:evenodd;}</style><path class="st0" d="M55.5 56.5h-48c-2.2 0-4-1.8-4-4v-40c0-2.2 1.8-4 4-4h48c2.2 0 4 1.8 4 4v40c0 2.2-1.8 4-4 4zm2-44c0-1.1-.9-2-2-2h-48c-1.1 0-2 .9-2 2v6h52v-6zm0 8h-52v32c0 1.1.9 2 2 2h48c1.1 0 2-.9 2-2v-32zm-9 26h-14c-.6 0-1-.4-1-1v-16c0-.6.4-1 1-1h14c.6 0 1 .4 1 1v16c0 .6-.4 1-1 1zm-1-16h-12v14h12v-14zm-19 16h-14c-.6 0-1-.4-1-1s.4-1 1-1h14c.6 0 1 .4 1 1s-.4 1-1 1zm0-8h-14c-.6 0-1-.4-1-1s.4-1 1-1h14c.6 0 1 .4 1 1s-.4 1-1 1zm0-8h-14c-.6 0-1-.4-1-1s.4-1 1-1h14c.6 0 1 .4 1 1s-.4 1-1 1zm-19-18c1.1 0 2 .9 2 2s-.9 2-2 2-2-.9-2-2 .9-2 2-2zm6 0c1.1 0 2 .9 2 2s-.9 2-2 2-2-.9-2-2 .9-2 2-2zm6 0c1.1 0 2 .9 2 2s-.9 2-2 2-2-.9-2-2 .9-2 2-2z"/></svg>