<svg id="Layer_1" xmlns="http://www.w3.org/2000/svg" width="64" height="64" viewBox="0 0 64 64"><style>.st0{fill-rule:evenodd;clip-rule:evenodd;}</style><path class="st0" d="M52.5 60.5h-42c-1.1 0-2-.9-2-2v-52c0-1.1.9-2 2-2h42c1.1 0 2 .9 2 2v52c0 1.1-.9 2-2 2zm-24-2h6v-16h-6v16zm24-52h-42v52h16v-18h10v18h16v-52zm-4 12h-10v-8h10v8zm-2-6h-6v4h6v-4zm2 16h-10v-8h10v8zm-2-6h-6v4h6v-4zm2 16h-10v-8h10v8zm-2-6h-6v4h6v-4zm2 16h-10v-8h10v8zm-2-6h-6v4h6v-4zm-20-12h10v8h-10v-8zm2 6h6v-4h-6v4zm-2-16h10v8h-10v-8zm2 6h6v-4h-6v4zm-2-16h10v8h-10v-8zm2 6h6v-4h-6v4zm-14 24h10v8h-10v-8zm2 6h6v-4h-6v4zm-2-16h10v8h-10v-8zm2 6h6v-4h-6v4zm-2-16h10v8h-10v-8zm2 6h6v-4h-6v4zm-2-16h10v8h-10v-8zm2 6h6v-4h-6v4z"/></svg>