<svg xmlns="http://www.w3.org/2000/svg" viewBox="0 0 64 64"><path fill-rule="evenodd" clip-rule="evenodd" d="M38.4 40.1c.1.1.1.3.1.4v2c0 .6-.4 1-1 1h-12c-.6 0-1-.4-1-1v-2c0-.2 0-.3.1-.4-6.5-2.9-11.1-9.6-11.1-17.6 0-10.5 8.1-19 18-19s18 8.5 18 19c0 7.9-4.6 14.7-11.1 17.6zM31.5 5.5c-8.8 0-16 7.6-16 17 0 7.5 4.6 13.9 11 16.1v2.9h10v-2.9c6.4-2.2 11-8.6 11-16.1 0-9.4-7.2-17-16-17zm-6 40h12c.6 0 1 .4 1 1s-.4 1-1 1h-12c-.6 0-1-.4-1-1s.4-1 1-1zm0 4h12c.6 0 1 .4 1 1s-.4 1-1 1h-12c-.6 0-1-.4-1-1s.4-1 1-1zm2 4h8c.6 0 1 .4 1 1s-.4 1-1 1h-8c-.6 0-1-.4-1-1s.4-1 1-1zm3 4h2c.6 0 1 .4 1 1s-.4 1-1 1h-2c-.6 0-1-.4-1-1s.4-1 1-1z"/></svg>