<svg xmlns="http://www.w3.org/2000/svg" viewBox="0 0 64 64"><path fill-rule="evenodd" clip-rule="evenodd" d="M55.5 41.5v16c0 1.1-.9 2-2 2h-44c-1.1 0-2-.9-2-2v-52c0-1.1.9-2 2-2h44c1.1 0 2 .9 2 2v16h-48v2h48v16h-48v2h48zm-32 10c0 1.1.9 2 2 2h12c1.1 0 2-.9 2-2v-3c0-.6-.4-1-1-1s-1 .4-1 1v3h-12v-3c0-.6-.4-1-1-1s-1 .4-1 1v3zm0-36c0 1.1.9 2 2 2h12c1.1 0 2-.9 2-2v-3c0-.6-.4-1-1-1s-1 .4-1 1v3h-12v-3c0-.6-.4-1-1-1s-1 .4-1 1v3zm0 18c0 1.1.9 2 2 2h12c1.1 0 2-.9 2-2v-3c0-.6-.4-1-1-1s-1 .4-1 1v3h-12v-3c0-.6-.4-1-1-1s-1 .4-1 1v3z"/></svg>