<svg xmlns="http://www.w3.org/2000/svg" viewBox="0 0 64 64"><path fill-rule="evenodd" clip-rule="evenodd" d="M3.5 59.5v-50h9v-6h2v6h34v-6h2v6h9v50h-56zm54-48h-7v2h-2v-2h-34v2h-2v-2h-7v4h52v-4zm0 6h-52v40h52v-40zm-40 24h-8v-8h8v8zm-2-6h-4v4h4v-4zm2 18h-8v-8h8v8zm-2-6h-4v4h4v-4zm14-18h-8v-8h8v8zm-2-6h-4v4h4v-4zm2 18h-8v-8h8v8zm-2-6h-4v4h4v-4zm2 18h-8v-8h8v8zm-2-6h-4v4h4v-4zm14-18h-8v-8h8v8zm-2-6h-4v4h4v-4zm2 18h-8v-8h8v8zm-2-6h-4v4h4v-4zm2 18h-8v-8h8v8zm-2-6h-4v4h4v-4zm14-18h-8v-8h8v8zm-2-6h-4v4h4v-4zm2 18h-8v-8h8v8zm-2-6h-4v4h4v-4z"/></svg>