<svg xmlns="http://www.w3.org/2000/svg" viewBox="0 0 64 64"><path fill-rule="evenodd" clip-rule="evenodd" d="M57.5 45.5H39.6L47.3 58c.1.2.2.3.2.5 0 .6-.4 1-1 1-.4 0-.7-.2-.8-.5l-8.5-13.5H25.8L17.3 59c-.2.3-.5.5-.8.5-.6 0-1-.4-1-1 0-.2.1-.4.2-.5l7.8-12.5h-18c-1.1 0-2-.9-2-2v-32c0-1.1.9-2 2-2h52c1.1 0 2 .9 2 2v32c0 1.1-.9 2-2 2zm0-34h-52v32h52v-32zM11.8 35.8l14-14c.2-.2.4-.3.7-.3.3 0 .5.1.7.3l9.3 9.3 11.6-11.6h-5.6c-.6 0-1-.4-1-1s.4-1 1-1h8c.6 0 1 .4 1 1v8c0 .6-.4 1-1 1s-1-.4-1-1v-5.6L37.2 33.2c-.2.2-.4.3-.7.3-.3 0-.5-.1-.7-.3l-9.3-9.3-13.3 13.3c-.2.2-.4.3-.7.3-.6 0-1-.4-1-1 0-.3.1-.5.3-.7zM30.5 4.5c0-.6.4-1 1-1s1 .4 1 1v3h-2v-3z"/></svg>