<svg xmlns="http://www.w3.org/2000/svg" viewBox="0 0 64 64"><path fill-rule="evenodd" clip-rule="evenodd" d="M35.5 59.5h-8c-18 0-24-6-24-24v-8c0-18 6-24 24-24h8c18 0 24 6 24 24v8c0 18-6 24-24 24zm22-31.7c0-16.7-5.6-22.3-22.3-22.3h-7.4c-16.7 0-22.3 5.6-22.3 22.3v7.4c0 16.7 5.6 22.3 22.3 22.3h7.4c16.7 0 22.3-5.6 22.3-22.3v-7.4zm-12.3-3.6l-16 16c-.2.2-.4.3-.7.3-.3 0-.5-.1-.7-.3l-10-10c-.2-.2-.3-.4-.3-.7 0-.6.4-1 1-1 .3 0 .5.1.7.3l9.3 9.3 15.3-15.3c.2-.2.4-.3.7-.3.6 0 1 .4 1 1 0 .3-.1.5-.3.7z"/></svg>