<svg xmlns="http://www.w3.org/2000/svg" viewBox="0 0 64 64"><path fill-rule="evenodd" clip-rule="evenodd" d="M49.5 59.5h-36c-1.1 0-2-.9-2-2v-46c0-1.1.9-2 2-2h8v-2c0-1.1.9-2 2-2h7v-1c0-.6.4-1 1-1s1 .4 1 1v1h7c1.1 0 2 .9 2 2v2h8c1.1 0 2 .9 2 2v46c0 1.1-.9 2-2 2zm0-6.6l-4.6 4.6h4.6v-4.6zm-10-45.4h-16v6h16v-6zm2 4v2c0 1.1-.9 2-2 2h-16c-1.1 0-2-.9-2-2v-2h-8v46h28.6l7.4-7.4V11.5h-8zm3 30h-26c-.6 0-1-.4-1-1s.4-1 1-1h26c.6 0 1 .4 1 1s-.4 1-1 1zm-26-8h20c.6 0 1 .4 1 1s-.4 1-1 1h-20c-.6 0-1-.4-1-1s.4-1 1-1zm26-4h-26c-.6 0-1-.4-1-1s.4-1 1-1h26c.6 0 1 .4 1 1s-.4 1-1 1z"/></svg>