<svg xmlns="http://www.w3.org/2000/svg" width="64" height="64" viewBox="0 0 64 64"><path d="M61.1 35.1c0 5.7-4.7 10.4-10.4 10.4H38.2c-.6 0-1-.4-1-1s.4-1 1-1h12.5c4.6 0 8.3-3.7 8.3-8.3s-3.7-8.3-8.3-8.3c-.6 0-1.2.1-1.9.2.5-1.3.8-2.8.8-4.4 0-6.9-5.6-12.5-12.5-12.5-6.5 0-12.3 5.3-12.8 11.6-1-2-3.1-3.3-5.4-3.3-3.1 0-5.7 2.6-5.7 5.7 0 .2 0 .4.1.6C8.7 25.3 5 29.2 5 34c0 5.2 4.2 9.3 9.3 9.3h11.4c.6 0 1 .4 1 1s-.4 1-1 1H14.4C8 45.4 2.9 40.3 2.9 34c0-5.3 3.5-9.7 8.4-11 .5-3.7 3.7-6.6 7.7-6.6 1.7 0 3.2.5 4.5 1.5 2-5.6 7.4-9.8 13.7-9.8 8 0 14.5 6.5 14.5 14.5 0 .7-.1 1.5-.2 2.1 5.4.5 9.6 5 9.6 10.4zm-36.7 1.7c-.2.2-.4.3-.7.3-.6 0-1-.4-1-1 0-.3.1-.5.3-.7l8.3-8.3c.2-.2.4-.3.7-.3.3 0 .5.1.7.3l8.3 8.3c.2.2.3.4.3.7 0 .6-.4 1-1 1-.3 0-.5-.1-.7-.3L33 30.3v26.6c0 .6-.4 1-1 1s-1-.4-1-1V30.3l-6.6 6.5z"/></svg>