<svg xmlns="http://www.w3.org/2000/svg" viewBox="0 0 64 64"><path fill-rule="evenodd" clip-rule="evenodd" d="M60.5 40.5c0 5.5-4.5 10-10 10h-35c-6.1 0-11-4.9-11-11 0-5.1 3.4-9.3 8.1-10.6.5-3.6 3.6-6.4 7.4-6.4 1.6 0 3.1.5 4.3 1.4 1.9-5.4 7.1-9.4 13.2-9.4 7.7 0 14 6.3 14 14 0 .7-.1 1.4-.2 2 5.2.5 9.2 4.8 9.2 10zm-10-8c-.6 0-1.2.1-1.8.2.5-1.3.8-2.7.8-4.2 0-6.6-5.4-12-12-12-6.3 0-11.7 5-12.3 11.2-1-1.8-3.1-3.2-5.2-3.2-3 0-5.5 2.5-5.5 5.5 0 .2 0 .4.1.6-4.6.4-8.1 4.2-8.1 8.9 0 5 4 9 9 9h35c4.4 0 8-3.6 8-8s-3.6-8-8-8z"/></svg>