<svg xmlns="http://www.w3.org/2000/svg" viewBox="0 0 64 64"><path fill-rule="evenodd" clip-rule="evenodd" d="M59.2 21.2l-6 6c-.2.2-.4.3-.7.3-.6 0-1-.4-1-1 0-.3.1-.5.3-.7l4.3-4.3H41L23.3 43.1c-.2.2-.5.4-.8.4h-18c-.6 0-1-.4-1-1s.4-1 1-1H22l17.7-21.6c.2-.2.5-.4.8-.4h15.6l-4.3-4.3c-.2-.2-.3-.4-.3-.7 0-.6.4-1 1-1 .3 0 .5.1.7.3l6 6c.2.2.3.4.3.7 0 .3-.1.5-.3.7zm-37.2.3H4.5c-.6 0-1-.4-1-1s.4-1 1-1h18c.3 0 .6.2.8.4l6.3 7.7-1.3 1.6-6.3-7.7zm19 20h15.1l-4.3-4.3c-.2-.2-.3-.4-.3-.7 0-.6.4-1 1-1 .3 0 .5.1.7.3l6 6c.2.2.3.4.3.7 0 .3-.1.5-.3.7l-6 6c-.2.2-.4.3-.7.3-.6 0-1-.4-1-1 0-.3.1-.5.3-.7l4.3-4.3H40.5c-.3 0-.6-.2-.8-.4l-6.3-7.7 1.3-1.6 6.3 7.7z"/></svg>