<svg viewBox="0 0 64 64" xmlns="http://www.w3.org/2000/svg" fill-rule="evenodd" clip-rule="evenodd" stroke-linejoin="round" stroke-miterlimit="1.414"><path d="M55.5 56.5h-48c-2.2 0-4-1.8-4-4v-40c0-2.2 1.8-4 4-4h48c2.2 0 4 1.8 4 4v40c0 2.2-1.8 4-4 4zm2-44c0-1.1-.9-2-2-2h-48c-1.1 0-2 .9-2 2v6h52v-6zm0 8h-52v32c0 1.1.9 2 2 2h48c1.1 0 2-.9 2-2v-32zm-29 26h-14c-.6 0-1-.4-1-1s.4-1 1-1h14c.6 0 1 .4 1 1s-.4 1-1 1zm0-8h-14c-.6 0-1-.4-1-1s.4-1 1-1h14c.6 0 1 .4 1 1s-.4 1-1 1zm0-8h-14c-.6 0-1-.4-1-1s.4-1 1-1h14c.6 0 1 .4 1 1s-.4 1-1 1zm-19-18c1.1 0 2 .9 2 2s-.9 2-2 2-2-.9-2-2 .9-2 2-2zm6 0c1.1 0 2 .9 2 2s-.9 2-2 2-2-.9-2-2 .9-2 2-2zm6 0c1.1 0 2 .9 2 2s-.9 2-2 2-2-.9-2-2 .9-2 2-2z"/><path d="M48.185 39.23l-7.213 5.15c-1.085.773-1.972.51-1.972-.585V31.852c0-1.095.887-1.357 1.972-.583l7.213 5.146c1.087.773 1.087 2.04 0 2.814z"/></svg>