<svg xmlns="http://www.w3.org/2000/svg" viewBox="0 0 64 64"><path fill-rule="evenodd" clip-rule="evenodd" d="M55.5 51.5h-5c-.6 0-1-.4-1-1 0-1.8-2.7-3-6-3s-6 1.2-6 3c0 .6-.4 1-1 1h-10c-.6 0-1-.4-1-1 0-1.8-2.7-3-6-3s-6 1.2-6 3c0 .6-.4 1-1 1h-5c-2.2 0-4-1.8-4-4v-32c0-2.2 1.8-4 4-4h48c2.2 0 4 1.8 4 4v32c0 2.2-1.8 4-4 4zm2-36c0-1.1-.9-2-2-2h-48c-1.1 0-2 .9-2 2v32c0 1.1.9 2 2 2h4.2c.7-2.3 4-4 7.8-4 3.9 0 7.1 1.7 7.8 4h8.3c.7-2.3 4-4 7.8-4s7.1 1.7 7.8 4h4.2c1.1 0 2-.9 2-2v-32zm-46 10h40v2h-40v-2zm0-6h40v2h-40v-2zm24 14h-24v-2h24v2z"/></svg>