<svg xmlns="http://www.w3.org/2000/svg" viewBox="0 0 64 64"><path fill-rule="evenodd" clip-rule="evenodd" d="M45.5 53.5c-4.8 0-8.9-2.4-11.5-6h-5c-2.5 3.6-6.7 6-11.5 6-7.7 0-14-6.3-14-14s6.3-14 14-14h13c0-16 10-16 10-16 .6 0 1 .4 1 1s-.4 1-1 1c0 0-8 0-8 14h13c7.7 0 14 6.3 14 14s-6.3 14-14 14zm0-26h-28c-6.6 0-12 5.4-12 12s5.4 12 12 12c4.4 0 8.3-2.4 10.4-6h7.2c2.1 3.6 5.9 6 10.4 6 6.6 0 12-5.4 12-12s-5.4-12-12-12zm3 12c-1.7 0-3-1.3-3-3s1.3-3 3-3 3 1.3 3 3-1.3 3-3 3zm0-4c-.6 0-1 .4-1 1s.4 1 1 1 1-.4 1-1-.4-1-1-1zm-6 10c-1.7 0-3-1.3-3-3s1.3-3 3-3 3 1.3 3 3-1.3 3-3 3zm0-4c-.6 0-1 .4-1 1s.4 1 1 1 1-.4 1-1-.4-1-1-1zm-19 1h-3v3c0 1.1-.9 2-2 2h-2c-1.1 0-2-.9-2-2v-3h-3c-1.1 0-2-.9-2-2v-2c0-1.1.9-2 2-2h3v-3c0-1.1.9-2 2-2h2c1.1 0 2 .9 2 2v3h3c1.1 0 2 .9 2 2v2c0 1.1-.9 2-2 2zm0-4h-5v-5h-2v5h-5v2h5v5h2v-5h5v-2z"/></svg>