<svg xmlns="http://www.w3.org/2000/svg" viewBox="0 0 64 64"><path fill-rule="evenodd" clip-rule="evenodd" d="M56.4 23.1l-4.7 19c1.1.7 1.9 2 1.9 3.4 0 2.2-1.8 4-4 4h-36c-2.2 0-4-1.8-4-4 0-1.4.8-2.7 1.9-3.4l-4.7-19c-1.8-.7-3.1-2.5-3.1-4.6 0-2.8 2.2-5 5-5s5 2.2 5 5c0 .6-.1 1.1-.3 1.6l9.1 10.6 4.9-9.8c-.4-.7-.7-1.5-.7-2.4 0-2.8 2.2-5 5-5s5 2.2 5 5c0 .9-.3 1.7-.7 2.4l4.9 9.8L50 20.1c-.2-.5-.3-1.1-.3-1.6 0-2.8 2.2-5 5-5s5 2.2 5 5c-.2 2.1-1.5 3.9-3.3 4.6zM13.5 47.5h36c1.1 0 2-.9 2-2s-.9-2-2-2h-36c-1.1 0-2 .9-2 2s.9 2 2 2zm-5-32c-1.7 0-3 1.3-3 3s1.3 3 3 3 3-1.3 3-3-1.3-3-3-3zm23 0c-1.7 0-3 1.3-3 3s1.3 3 3 3 3-1.3 3-3-1.3-3-3-3zm9.8 17.7c-.2.2-.5.3-.8.3-.4 0-.7-.2-.9-.6l-5.2-10.4c-.8.6-1.8.9-2.9.9-1.1 0-2.1-.4-2.9-.9l-5.2 10.4c-.2.3-.5.6-.9.6-.3 0-.6-.1-.8-.4l-9.6-11.2c-.9.9-2 1.5-3.3 1.5l4.5 18h36.4l4.5-18c-1.3-.1-2.5-.6-3.3-1.5l-9.6 11.3zm13.2-17.7c-1.7 0-3 1.3-3 3s1.3 3 3 3 3-1.3 3-3-1.3-3-3-3zm-11 24c-1.1 0-2-.9-2-2s.9-2 2-2 2 .9 2 2-.9 2-2 2zm-8 0c-1.1 0-2-.9-2-2s.9-2 2-2 2 .9 2 2-.9 2-2 2zm-8 0c-1.1 0-2-.9-2-2s.9-2 2-2 2 .9 2 2-.9 2-2 2zm-8 0c-1.1 0-2-.9-2-2s.9-2 2-2 2 .9 2 2-.9 2-2 2z"/></svg>