<svg xmlns="http://www.w3.org/2000/svg" viewBox="0 0 64 64"><path fill-rule="evenodd" clip-rule="evenodd" d="M31.5 59.5c-15.5 0-28-12.5-28-28s12.5-28 28-28 28 12.5 28 28-12.5 28-28 28zm13.2-5.6c4.7-2.8 8.4-6.9 10.6-11.9-1.5-1.5-3.5-2.5-5.8-2.5-4.4 0-8 3.6-8 8 0 2.6 1.3 4.9 3.2 6.4zm-26.4 0c1.9-1.5 3.2-3.8 3.2-6.4 0-4.4-3.6-8-8-8-2.3 0-4.3 1-5.8 2.5 2.2 5 6 9.1 10.6 11.9zM31.5 5.5c-14.4 0-26 11.6-26 26 0 3 .5 5.8 1.4 8.5 1.8-1.5 4-2.5 6.6-2.5 5.5 0 10 4.5 10 10 0 2.9-1.3 5.6-3.3 7.4 3.4 1.7 7.2 2.6 11.3 2.6 4.1 0 7.9-1 11.3-2.6-2-1.8-3.3-4.5-3.3-7.4 0-5.5 4.5-10 10-10 2.5 0 4.8.9 6.6 2.5.9-2.7 1.4-5.5 1.4-8.5 0-14.4-11.6-26-26-26zm19 27c-.6 0-1-.4-1-1s.4-1 1-1 1 .4 1 1-.4 1-1 1zm-2-9.6c-.5.3-1.1.1-1.4-.4-.3-.5-.1-1.1.4-1.4.5-.3 1.1-.1 1.4.4.2.5 0 1.1-.4 1.4zm-8-7c-.5-.3-.6-.9-.4-1.4.3-.5.9-.6 1.4-.4.5.3.6.9.4 1.4-.3.5-.9.7-1.4.4zm-7 19.1c-1.9 1.1-4.4.4-5.5-1.5-.6-1-.7-2.1-.4-3.1l-3.2-11 8 8.3c1 .3 1.9.9 2.4 1.9 1.3 1.8.6 4.3-1.3 5.4zM29 28.4c.2-.1.3-.3.5-.4l.6-.3-2.2-2.5 1.1 3.2zm4.2 2.1c-.6-1-1.8-1.3-2.7-.7s-1.3 1.8-.7 2.7c.6 1 1.8 1.3 2.7.7 1-.5 1.3-1.7.7-2.7zm-1.7-17c-.6 0-1-.4-1-1s.4-1 1-1 1 .4 1 1-.4 1-1 1zm-9 2.4c-.5.3-1.1.1-1.4-.4-.3-.5-.1-1.1.4-1.4.5-.3 1.1-.1 1.4.4.2.5.1 1.1-.4 1.4zm-8 7c-.5-.3-.6-.9-.4-1.4.3-.5.9-.6 1.4-.4.5.3.6.9.4 1.4-.3.5-.9.6-1.4.4zm-2 9.6c-.6 0-1-.4-1-1s.4-1 1-1 1 .4 1 1-.4 1-1 1z"/></svg>