<svg viewBox="0 0 64 64" xmlns="http://www.w3.org/2000/svg" fill-rule="evenodd" clip-rule="evenodd" stroke-linejoin="round" stroke-miterlimit="1.414"><path d="M31.697 6C25.22 6 19.353 7.12 15.042 9.005c-2.156.944-3.935 2.084-5.197 3.39-1.263 1.306-2.012 2.83-2.012 4.452v30.37c0 1.622.75 3.125 2.012 4.43 1.262 1.306 3.042 2.447 5.197 3.39 4.31 1.886 10.18 3.028 16.655 3.028 6.473 0 12.34-1.142 16.654-3.028 2.16-.943 3.914-2.084 5.177-3.39 1.263-1.305 2.034-2.807 2.034-4.43V16.85c0-1.62-.75-3.146-2.01-4.452-1.263-1.306-3.042-2.446-5.2-3.39C44.04 7.12 38.174 6 31.7 6zm0 1.446C38 7.446 43.7 8.56 47.764 10.34c2.03.888 3.666 1.933 4.745 3.05 1.08 1.116 1.603 2.282 1.603 3.457 0 1.174-.525 2.318-1.605 3.435-1.08 1.116-2.715 2.16-4.746 3.05C43.7 25.11 38 26.25 31.697 26.25c-6.305 0-12.004-1.138-16.067-2.915-2.032-.89-3.667-1.935-4.746-3.05-1.08-1.118-1.604-2.262-1.604-3.436 0-1.176.525-2.34 1.604-3.46 1.08-1.116 2.714-2.16 4.746-3.05 4.063-1.78 9.762-2.893 16.067-2.893zM9.28 20.62c1.566 1.834 3.924 3.23 5.762 4.046 4.31 1.886 10.18 3.028 16.655 3.028 6.475 0 12.343-1.142 16.654-3.028 2.254-1.116 4.3-2.3 5.765-4.045v6.35c0 1.176-.525 2.32-1.605 3.437s-2.715 2.16-4.746 3.05C43.7 35.234 38 36.37 31.697 36.37c-6.305 0-12.004-1.136-16.067-2.914-2.032-.89-3.667-1.934-4.746-3.05-1.08-1.117-1.604-2.26-1.604-3.435v-6.35zm0 10.125c1.566 1.833 3.924 3.23 5.762 4.045 4.31 1.886 10.18 3.028 16.655 3.028 6.475 0 12.343-1.142 16.654-3.028 2.254-1.117 4.3-2.3 5.765-4.045v6.35c0 1.174-.525 2.318-1.605 3.434s-2.715 2.16-4.746 3.05C43.7 45.357 38 46.494 31.697 46.494c-6.305 0-12.004-1.137-16.067-2.915-2.032-.89-3.667-1.934-4.746-3.05-1.08-1.117-1.604-2.26-1.604-3.435v-6.35zm0 10.123c1.566 1.834 3.924 3.23 5.762 4.045 4.31 1.887 10.18 3.028 16.655 3.028 6.475 0 12.343-1.14 16.654-3.026 2.254-1.116 4.3-2.298 5.765-4.045v6.35c0 1.174-.547 2.32-1.628 3.434-1.08 1.117-2.69 2.162-4.722 3.05-4.067 1.78-9.765 2.916-16.067 2.916-6.303 0-12.005-1.138-16.067-2.916-2.03-.89-3.666-1.934-4.745-3.05-1.08-1.117-1.604-2.26-1.604-3.436v-6.35z"/></svg>