<svg xmlns="http://www.w3.org/2000/svg" viewBox="0 0 64 64"><path d="M31.5 59.5c-12.2 0-22-3.1-22-7v-8c0-.6.3-1.2.8-1.8.5.3 1 .6 1.5 1-.2.3-.3.6-.3.9 0 2.8 9 5 20 5s20-2.2 20-5c0-.3-.1-.6-.3-.9.6-.3 1.1-.6 1.5-1 .5.6.8 1.2.8 1.8v8c0 3.9-9.8 7-22 7zm0-14c-12.2 0-22-3.1-22-7v-8c0-.6.3-1.2.8-1.8.5.3 1 .6 1.5 1-.2.3-.3.6-.3.9 0 2.8 9 5 20 5s20-2.2 20-5c0-.3-.1-.6-.3-.9.6-.3 1.1-.6 1.5-1 .5.6.8 1.2.8 1.8v8c0 3.9-9.8 7-22 7zm0-14c-12.2 0-22-3.1-22-7v-8c0-.6.3-1.2.8-1.8.5.3 1 .6 1.5 1-.2.3-.3.6-.3.9 0 2.8 9 5 20 5s20-2.2 20-5c0-.3-.1-.6-.3-.9.6-.3 1.1-.6 1.5-1 .5.6.8 1.2.8 1.8v8c0 3.9-9.8 7-22 7zm0-14c-12.2 0-22-3.1-22-7s9.8-7 22-7 22 3.1 22 7-9.8 7-22 7z"/></svg>