<svg viewBox="0 0 64 64" xmlns="http://www.w3.org/2000/svg" fill-rule="evenodd" clip-rule="evenodd" stroke-linejoin="round" stroke-miterlimit="1.414"><path d="M32 18c12.15 0 22-3.134 22-7s-9.85-7-22-7-22 3.134-22 7 9.85 7 22 7zm0-12c10.84 0 19.625 2.238 19.625 5S42.84 16 32 16s-19.625-2.238-19.625-5S21.16 6 32 6zm19.685 10.14c.194.28.315.566.315.86 0 2.762-8.954 5-20 5s-20-2.238-20-5c0-.294.122-.58.315-.86a14.528 14.528 0 0 1-1.546-.95c-.488.58-.77 1.183-.77 1.81v8c0 3.866 9.85 7 22 7s22-3.134 22-7v-8c0-.627-.284-1.23-.77-1.81-.463.33-.98.647-1.546.95zM52 25c0 2.762-8.954 5-20 5s-20-2.238-20-5v-5.096C15.47 22.318 23.11 24 32 24s16.53-1.682 20-4.096V25zm-.315 5.14c.194.28.315.567.315.86 0 2.762-8.954 5-20 5s-20-2.238-20-5c0-.293.122-.58.315-.86a14.528 14.528 0 0 1-1.546-.95c-.488.58-.77 1.183-.77 1.81v8c0 3.866 9.85 7 22 7s22-3.134 22-7v-8c0-.627-.284-1.23-.77-1.81-.463.33-.98.647-1.546.95zM52 39c0 2.762-8.954 5-20 5s-20-2.238-20-5v-5.096C15.47 36.318 23.11 38 32 38s16.53-1.682 20-4.096V39zm-.315 5.14c.194.28.315.566.315.86 0 2.762-8.954 5-20 5s-20-2.238-20-5c0-.294.12-.58.315-.86a14.528 14.528 0 0 1-1.546-.95c-.488.58-.77 1.183-.77 1.81v8c0 3.866 9.85 7 22 7s22-3.134 22-7v-8c0-.627-.284-1.23-.77-1.81-.463.33-.98.647-1.546.95zM52 53c0 2.762-8.954 5-20 5s-20-2.238-20-5v-5.096C15.47 50.318 23.11 52 32 52s16.53-1.682 20-4.096V53z" fill-rule="nonzero"/></svg>