<svg xmlns="http://www.w3.org/2000/svg" viewBox="0 0 64 64"><path fill-rule="evenodd" clip-rule="evenodd" d="M50.5 60.5h-10c-2.2 0-4-1.8-4-4v-23c0-2.2 1.8-4 4-4h10c2.2 0 4 1.8 4 4v23c0 2.2-1.8 4-4 4zm2-27c0-1.1-.9-2-2-2h-10c-1.1 0-2 .9-2 2v23c0 1.1.9 2 2 2h10c1.1 0 2-.9 2-2v-23zm-7 23c-.6 0-1-.4-1-1s.4-1 1-1 1 .4 1 1-.4 1-1 1zm-13-2c0 .6-.4 1-1 1s-1-.4-1-1 .4-1 1-1 1 .4 1 1zm-19-47h36v20h-2v-18h-32v40h19v2h-21v-44zm38 0c0-1.1-.9-2-2-2h-36c-1.1 0-2 .9-2 2v48c0 1.1.9 2 2 2h21c0 .7.2 1.4.6 2H13.5c-2.2 0-4-1.8-4-4v-48c0-2.2 1.8-4 4-4h36c2.2 0 4 1.8 4 4v20.6c-.6-.4-1.3-.6-2-.6v-20z"/></svg>