<?xml version="1.0" standalone="no"?><!DOCTYPE svg PUBLIC "-//W3C//DTD SVG 1.1//EN" "http://www.w3.org/Graphics/SVG/1.1/DTD/svg11.dtd"><svg width="100%" height="100%" viewBox="0 0 32 32" version="1.1" xmlns="http://www.w3.org/2000/svg" xmlns:xlink="http://www.w3.org/1999/xlink" xml:space="preserve" style="fill-rule:evenodd;clip-rule:evenodd;stroke-linejoin:round;stroke-miterlimit:1.41421;"><path d="M23.192,7.658l-7.778,7.778l1.414,1.414l7.78,-7.778l1.413,1.414l2.123,-6.364l-6.364,2.12l1.413,1.416l-0.001,0l0,0ZM18,5.002l-11.01,0c-1.1,0 -1.99,0.89 -1.99,1.99l0,18.018c0,1.1 0.89,1.99 1.99,1.99l18.02,0c1.1,0 1.99,-0.89 1.99,-1.99l0,-11.01l-2,0l0,10.007c0,0.55 -0.445,0.994 -0.993,0.994l-16.014,0c-0.545,-0.001 -0.993,-0.449 -0.993,-0.994c0,-0.001 0,-0.001 0,-0.002l0,-16.011c0,-0.55 0.445,-0.993 0.993,-0.993l10.007,0l0,-2l0,0.001Z" style="fill:#000;"/></svg>