<svg id="Layer_1" xmlns="http://www.w3.org/2000/svg" width="64" height="64" viewBox="0 0 64 64"><style>.st0{fill-rule:evenodd;clip-rule:evenodd;}</style><path class="st0" d="M56.5 60.5h-50c-.6 0-1-.4-1-1v-32c0-.6.4-1 1-1 .3 0 .5.1.7.3l10.3 10.3v-9.6c0-.6.4-1 1-1 .3 0 .5.1.7.3l10.3 10.3v-9.6c0-.6.4-1 1-1 .3 0 .5.1.7.3l11.7 11.7h6.6v-19c0-.6.4-1 1-1h6c.6 0 1 .4 1 1v40c0 .6-.4 1-1 1zm-1-40h-4v19c0 .6-.4 1-1 1h-8c-.3 0-.5-.1-.7-.3L31.5 29.9v9.6c0 .6-.4 1-1 1-.3 0-.5-.1-.7-.3L19.5 29.9v9.6c0 .6-.4 1-1 1-.3 0-.5-.1-.7-.3L7.5 29.9v28.6h48v-38zm-37 26c1.7 0 3 1.3 3 3s-1.3 3-3 3-3-1.3-3-3 1.3-3 3-3zm0 4c.6 0 1-.4 1-1s-.4-1-1-1-1 .4-1 1 .4 1 1 1zm13-4c1.7 0 3 1.3 3 3s-1.3 3-3 3-3-1.3-3-3 1.3-3 3-3zm0 4c.6 0 1-.4 1-1s-.4-1-1-1-1 .4-1 1 .4 1 1 1zm13-4c1.7 0 3 1.3 3 3s-1.3 3-3 3-3-1.3-3-3 1.3-3 3-3zm0 4c.6 0 1-.4 1-1s-.4-1-1-1-1 .4-1 1 .4 1 1 1zm9-34c-.6 0-1-.4-1-1 0-.4-.1-9-6-9-2.7 0-3.7 1.6-5.1 4.2-1.4 2.6-3.2 5.8-7.9 5.8-4.9 0-6.8-3.3-8.4-6-1.5-2.5-2.5-4-4.6-4-5.1 0-6 5-6 5.2-.1.5-.6.9-1.2.8-.5-.1-.9-.6-.8-1.2.4-2.4 2.6-6.8 8-6.8 3.4 0 4.8 2.5 6.3 5 1.5 2.6 3 5 6.7 5 3.5 0 4.7-2.2 6.1-4.7 1.4-2.5 2.9-5.3 6.9-5.3 6.3 0 8 7.2 8 11 0 .6-.4 1-1 1z"/></svg>