<svg xmlns="http://www.w3.org/2000/svg" viewBox="0 0 64 64"><path fill-rule="evenodd" clip-rule="evenodd" d="M58.7 51.5l-1.9.4c0 .1-.1.1-.1.2l1.1 1.6c.3.4.2.9-.1 1.3l-2.8 2.8c-.3.3-.9.4-1.3.1L52 56.8c-.1 0-.1.1-.2.1l-.4 1.9c-.1.5-.5.8-1 .8h-4c-.5 0-.9-.4-1-.8l-.4-1.9c-.1 0-.1-.1-.2-.1l-1.6 1.1c-.4.3-.9.2-1.3-.1L39.1 55c-.3-.3-.4-.9-.1-1.3l1.1-1.6c0-.1-.1-.1-.1-.2l-1.9-.4c-.5-.1-.8-.5-.8-1v-4c0-.5.4-.9.8-1l1.9-.4c0-.1.1-.1.1-.2L39 43.3c-.3-.4-.2-.9.1-1.3l2.8-2.8c.3-.3.9-.4 1.3-.1l1.6 1.1c.1 0 .1-.1.2-.1l.4-1.9c.1-.5.5-.8 1-.8h4c.5 0 .9.4 1 .8l.4 1.9c.1 0 .1.1.2.1l1.6-1.1c.4-.3.9-.2 1.3.1l2.8 2.8c.3.3.4.9.1 1.3l-1 1.7c0 .1.1.1.1.2l1.9.4c.5.1.8.5.8 1v4c-.1.4-.5.8-.9.9zm-1.2-4.2l-1.8-.3c-.2-.9-.5-1.7-1-2.4l1-1.6-1.7-1.7-1.6 1c-.7-.5-1.5-.8-2.4-1l-.4-1.8h-2.4l-.2 1.8c-.9.2-1.7.5-2.4 1l-1.6-1-1.7 1.7 1 1.6c-.5.7-.8 1.5-1 2.4l-1.8.4v2.4l1.8.4c.2.9.5 1.7 1 2.4l-1 1.6 1.7 1.7 1.6-1c.7.5 1.5.8 2.4 1l.4 1.8h2.4l.4-1.8c.9-.2 1.7-.5 2.4-1l1.6 1 1.7-1.7-1-1.6c.5-.7.8-1.5 1-2.4l1.8-.4v-2.5zm-9 5.2c-2.2 0-4-1.8-4-4s1.8-4 4-4 4 1.8 4 4-1.8 4-4 4zm0-6c-1.1 0-2 .9-2 2s.9 2 2 2 2-.9 2-2-.9-2-2-2zm-3.7-19.1l-5 1.7c-.3 1-.7 2-1.2 2.9l2.4 4.8c.2.4.1.8-.2 1.1L38 40.7c-.3.3-.8.4-1.1.2L32 38.6c-.9.5-1.9.9-2.9 1.2l-1.7 5c-.1.4-.5.7-.9.7h-4c-.4 0-.8-.3-.9-.7l-1.7-5c-1-.3-2-.7-2.9-1.2L12.2 41c-.4.2-.8.1-1.1-.2L8.3 38c-.3-.3-.4-.8-.2-1.1l2.4-4.8c-.5-.9-.9-1.9-1.2-2.9l-5-1.7c-.4-.1-.7-.5-.7-.9v-4c0-.4.3-.8.7-.9l5-1.7c.3-1 .7-2 1.2-2.9L8 12.2c-.2-.4-.1-.8.2-1.1L11 8.3c.3-.3.8-.4 1.1-.2l4.8 2.4c.9-.5 1.9-.9 2.9-1.2l1.7-5c.1-.4.5-.7.9-.7h4c.4 0 .8.3.9.7l1.7 5c1 .3 2 .7 2.9 1.2L36.8 8c.4-.2.8-.1 1.1.2l2.8 2.8c.3.3.4.8.2 1.1L38.6 17c.5.9.9 1.9 1.2 2.9l5 1.7c.4.1.7.5.7.9v4c0 .4-.3.8-.7.9zm-1.3-4.2l-5.3-1.8c-.4-1.6-1-3.1-1.8-4.4l2.5-5-1.9-1.8-5 2.5c-1.3-.8-2.8-1.5-4.4-1.8l-1.8-5.3h-2.6l-1.8 5.3c-1.6.4-3.1 1-4.4 1.8l-5-2.5-1.8 1.8 2.5 5c-.9 1.3-1.5 2.8-1.8 4.4l-5.3 1.8v2.6l5.3 1.8c.4 1.6 1 3.1 1.8 4.4l-2.5 5 1.8 1.8 5-2.5c1.3.8 2.8 1.5 4.4 1.8l1.8 5.3h2.6l1.8-5.3c1.6-.4 3.1-1 4.4-1.8l5 2.5 1.8-1.8-2.5-5c.8-1.3 1.5-2.8 1.8-4.4l5.3-1.8v-2.6zm-19 10.3c-5 0-9-4-9-9s4-9 9-9 9 4 9 9-4 9-9 9zm0-16c-3.9 0-7 3.1-7 7s3.1 7 7 7 7-3.1 7-7-3.1-7-7-7z"/></svg>