<svg xmlns="http://www.w3.org/2000/svg" viewBox="0 0 64 64"><path fill-rule="evenodd" clip-rule="evenodd" d="M58.8 35.4l-7.2 2.1c-.4 1.4-1 2.7-1.6 3.9l3.6 6.5c.2.4.2.9-.2 1.2l-4.2 4.2c-.3.3-.8.4-1.2.2L41.5 50c-1.2.6-2.4 1.2-3.7 1.6l-2.1 7.2c-.1.4-.5.7-1 .7h-6.2c-.5 0-.9-.3-1-.7l-2.1-7.2c-1.2-.4-2.4-.9-3.6-1.5l-6.6 3.6c-.4.2-.9.2-1.2-.2l-4.4-4.4c-.3-.3-.4-.8-.2-1.2l3.6-6.6c-.6-1.1-1.1-2.3-1.5-3.5l-7.2-2.1c-.4-.1-.7-.5-.7-1v-6.2c0-.5.3-.9.7-1l7.2-2.1c.4-1.2.9-2.4 1.5-3.5l-3.6-6.6c-.2-.4-.2-.9.2-1.2L14 9.7c.3-.3.8-.4 1.2-.2l6.6 3.6c1.2-.6 2.4-1.2 3.8-1.6l2-7.2c.1-.4.5-.7.9-.7h6c.5 0 .8.3.9.7l2 7.2c1.4.4 2.7 1 3.9 1.7L48 9.4c.4-.2.9-.2 1.2.2l4.2 4.2c.3.3.4.8.2 1.2L50 21.5c.7 1.2 1.2 2.6 1.6 3.9l7.2 2c.4.1.7.5.7.9v6c0 .7-.3 1-.7 1.1zm-1.3-6.1L50 27.1c-.5-2-1.3-3.9-2.3-5.5l3.8-6.9-3.2-3.2-6.9 3.8c-1.7-1-3.6-1.8-5.5-2.3l-2.2-7.5h-4.5L27.1 13c-1.9.5-3.8 1.2-5.4 2.2l-6.9-3.8-3.3 3.3 3.8 6.9c-1 1.6-1.7 3.4-2.2 5.3l-7.6 2.2v4.6l7.6 2.2c.5 1.9 1.2 3.6 2.2 5.3l-3.8 6.9 3.3 3.3 6.9-3.8c1.6 1 3.4 1.7 5.3 2.2l2.2 7.6h4.6l2.2-7.6c1.9-.5 3.7-1.2 5.4-2.3l6.9 3.8 3.2-3.2-3.8-6.9c1-1.7 1.8-3.6 2.3-5.5l7.5-2.2v-4.2zm-26 12.2c-5.5 0-10-4.5-10-10s4.5-10 10-10 10 4.5 10 10-4.5 10-10 10zm0-18c-4.4 0-8 3.6-8 8s3.6 8 8 8 8-3.6 8-8-3.6-8-8-8z"/></svg>