<?xml version="1.0" standalone="no"?><!DOCTYPE svg PUBLIC "-//W3C//DTD SVG 1.1//EN" "http://www.w3.org/Graphics/SVG/1.1/DTD/svg11.dtd"><svg width="100%" height="100%" viewBox="0 0 64 64" version="1.1" xmlns="http://www.w3.org/2000/svg" xmlns:xlink="http://www.w3.org/1999/xlink" xml:space="preserve" style="fill-rule:evenodd;clip-rule:evenodd;stroke-linejoin:round;stroke-miterlimit:1.41421;"><path d="M52,20c0,-4.44 -3.56,-8 -8,-8c-4.44,0 -8,3.56 -8,8c0,2.92 1.64,5.52 4,6.88l0,1.2c-0.08,2.08 -0.92,3.92 -2.52,5.52c-1.6,1.6 -3.44,2.44 -5.52,2.52c-3.32,0.08 -5.92,0.64 -8,1.8l0,-19.04c2.36,-1.36 4,-3.92 4,-6.88c0,-4.44 -3.56,-8 -8,-8c-4.44,0 -7.96,3.56 -7.96,8c0,2.92 1.64,5.52 4,6.88l0,26.24c-2.36,1.4 -4,3.96 -4,6.88c0,4.44 3.56,8 8,8c4.44,0 8,-3.56 8,-8c0,-2.12 -0.8,-4 -2.12,-5.44c0.36,-0.24 1.92,-1.64 2.36,-1.88c1,-0.44 2.24,-0.68 3.76,-0.68c4.2,-0.2 7.8,-1.8 11,-5c3.2,-3.2 4.8,-7.92 5,-12.08l-0.08,0c2.44,-1.44 4.08,-4 4.08,-6.92ZM20,7.2c2.64,0 4.8,2.2 4.8,4.8c0,2.6 -2.2,4.8 -4.8,4.8c-2.6,0 -4.8,-2.2 -4.8,-4.8c0,-2.6 2.2,-4.8 4.8,-4.8ZM20,56.84c-2.64,0 -4.8,-2.2 -4.8,-4.8c0,-2.6 2.2,-4.8 4.8,-4.8c2.6,0 4.8,2.2 4.8,4.8c0,2.6 -2.2,4.8 -4.8,4.8ZM44,24.84c-2.64,0 -4.8,-2.2 -4.8,-4.8c0,-2.6 2.2,-4.8 4.8,-4.8c2.6,0 4.8,2.2 4.8,4.8c0,2.6 -2.2,4.8 -4.8,4.8l0,0Z" style="fill:#000;fill-rule:nonzero;"/></svg>