<svg id="Layer_1" xmlns="http://www.w3.org/2000/svg" width="64" height="64" viewBox="0 0 64 64"><style>.st0{fill-rule:evenodd;clip-rule:evenodd;}</style><path class="st0" d="M31.5 60.5c-15.5 0-28-12.5-28-28s12.5-28 28-28 28 12.5 28 28-12.5 28-28 28zm0-54c-14.4 0-26 11.6-26 26s11.6 26 26 26 26-11.6 26-26-11.6-26-26-26zm24 26c0 2-.3 4-.8 5.9-3.6-1.8-9.2-5.8-9.2-10.9 0-6.2 6.2-6.1 5.6-8.8 2.8 3.9 4.4 8.7 4.4 13.8zm-14-12c-3 0-1-6-1-6-4 0-2-3-1-4 .1-.1.2-.3.3-.5 3.7 1.4 6.9 3.6 9.5 6.5-2.6-1.3-5.2 4-7.8 4zm-3.8 24.3c-2.8 2.9-3.3 9.1-4.1 9.6-.8.5-1.5-1-2.4-1.9-.9-1-1.9-2.9-.9-7.7 0 0-3.7-1-3.7-6.7 0-2.9 2.8-4.8 7.5-2.9s1.9 1.9 3.7 2.9c1.8.9 2.7 3.8-.1 6.7zm-2.2-22.3c-2 0-1 1-5 3s-2 5-4 5 0-3-3-2c-4 1-1 4-1 4 4 2 2 3 2 3-3-1-6-3-6-3s-4-3-3-5 3-5 0-8c-.9-.9-1.9-1.6-2.7-2 1.5-1.9 3.3-3.5 5.3-4.9 1.4 2.5 5.4 4.9 5.4 4.9 2-5 5-2 5-2 1-2 5-1 3 1s-6 1-3 4 1-2 5-2 4 4 2 4z"/></svg>