<svg id="Layer_1" xmlns="http://www.w3.org/2000/svg" width="64" height="64" viewBox="0 0 64 64"><style>.st0{fill-rule:evenodd;clip-rule:evenodd;}</style><path class="st0" d="M32.5 60.5c-15.5 0-28-12.5-28-28s12.5-28 28-28 28 12.5 28 28-12.5 28-28 28zm13.1-41.6c1.1 3.7 1.8 8 1.9 12.6h11c-.2-6.3-2.7-11.9-6.6-16.3-1.8 1.5-3.9 2.7-6.3 3.7zM19.5 31.5h12v-10c-3.7-.1-7.2-.7-10.3-1.8-1 3.5-1.6 7.5-1.7 11.8zm26 2h-12v10c3.7.1 7.2.7 10.3 1.8 1-3.5 1.6-7.5 1.7-11.8zM21.2 45.3c3.1-1.1 6.6-1.7 10.3-1.8v-10h-12c.1 4.3.7 8.3 1.7 11.8zm12.3-13.8h12c-.1-4.3-.7-8.3-1.7-11.8-3.1 1.1-6.6 1.7-10.3 1.8v10zm14 2c-.1 4.5-.8 8.8-1.9 12.6 2.4 1 4.5 2.3 6.2 3.7 3.9-4.4 6.4-10 6.6-16.3H47.5zm3 17.7c-1.5-1.3-3.4-2.4-5.5-3.3-1.5 4.1-3.5 7.5-5.9 9.7 4.3-1.1 8.2-3.4 11.4-6.4zm-7.3-4c-2.9-1-6.2-1.6-9.7-1.7v12.9c4-.6 7.5-4.9 9.7-11.2zM31.5 58.4V45.5c-3.5.1-6.8.7-9.7 1.7 2.2 6.3 5.7 10.6 9.7 11.2zM20 47.9c-2.1.9-3.9 2-5.5 3.3 3.1 3 7 5.3 11.4 6.4-2.4-2.2-4.4-5.5-5.9-9.7zm-6.9 1.9c1.8-1.5 3.9-2.7 6.2-3.7-1.1-3.7-1.8-8-1.9-12.6h-11c.4 6.3 2.8 11.9 6.7 16.3zm4.4-18.3c.1-4.5.8-8.8 1.9-12.6-2.4-1-4.5-2.3-6.2-3.7-3.9 4.4-6.4 10-6.6 16.3h10.9zm-3-17.7c1.5 1.3 3.4 2.4 5.5 3.3 1.5-4.1 3.5-7.5 5.9-9.7-4.3 1.1-8.2 3.4-11.4 6.4zm7.3 4c2.9 1 6.2 1.6 9.7 1.7V6.6c-4 .6-7.5 4.9-9.7 11.2zM33.5 6.6v12.9c3.5-.1 6.8-.7 9.7-1.7-2.2-6.3-5.7-10.6-9.7-11.2zM45 17.1c2.1-.9 3.9-2 5.5-3.3-3.1-3-7-5.3-11.4-6.4 2.4 2.2 4.4 5.5 5.9 9.7z"/></svg>