<svg id="Layer_1" xmlns="http://www.w3.org/2000/svg" width="64" height="64" viewBox="0 0 64 64"><style>.st0{fill:#010101;}</style><path class="st0" d="M34.5 44.5c-10.5 0-19-8.5-19-19s8.5-19 19-19 19 8.5 19 19-8.5 19-19 19zm0-36c-9.4 0-17 7.6-17 17s7.6 17 17 17 17-7.6 17-17-7.6-17-17-17zM21.8 6.3c-6.2 4.1-10.3 11.2-10.3 19.2 0 12.7 10.3 23 23 23 4.2 0 8.1-1.2 11.5-3.1.1-.1.3-.1.4-.1.6 0 1 .4 1 1 0 .4-.3.8-.7.9-3.6 2.1-7.9 3.3-12.3 3.3v8h8c.6 0 1 .4 1 1s-.4 1-1 1h-18c-.6 0-1-.4-1-1s.4-1 1-1h8v-8.1c-12.9-1-23-11.8-23-24.9 0-8.7 4.4-16.3 11.1-20.8.2-.1.4-.2.6-.2.6 0 1 .4 1 1 .1.4 0 .7-.3.8z"/></svg>