<svg xmlns="http://www.w3.org/2000/svg" viewBox="0 0 64 64"><path fill-rule="evenodd" clip-rule="evenodd" d="M59.5 19.5c0 .4-.2.7-.5.8L51.5 25v2.6c1.2.4 2 1.5 2 2.8 0 1.7-1.3 3-3 3s-3-1.3-3-3c0-1.3.8-2.4 2-2.8V14.5c0-.6.4-1 1-1 .2 0 .4.1.5.2l8 5c.3.1.5.4.5.8zm-9 10c-.6 0-1 .4-1 1s.4 1 1 1 1-.4 1-1-.4-1-1-1zm1-13.2v6.4l5.1-3.2-5.1-3.2zm-4.3 30.8c-.6.4-1.2.8-1.9 1.2-.1.1-.3.1-.5.1-.4 0-.7-.2-.9-.5-.2-.5-.1-1 .4-1.3l1.5-.9c.4-.3 1.1-.3 1.4.1.5.4.4 1 0 1.3zm-6 2.3c-.5.1-1.1.1-1.7.1h-.4c-.6 0-1-.4-1-1 0-.5.5-.9 1-.9h.4c.5 0 1 0 1.5-.1.6 0 1 .3 1.1.9 0 .5-.4 1-.9 1zm-6-.5c-.1 0-.2 0-.3-.1-.7-.2-1.4-.5-2-.9-.5-.3-.6-.9-.3-1.3s.9-.6 1.4-.3c.5.3 1 .5 1.6.7.5.2.8.7.6 1.2-.2.4-.6.7-1 .7zm-4.5-3.6c-.3 0-.7-.2-.9-.5-.3-.6-.6-1.2-.9-1.9-.2-.5.1-1 .6-1.2.5-.2 1.1.1 1.3.6.2.6.5 1.1.8 1.6.3.5.1 1-.4 1.3-.2.1-.3.1-.5.1zM29 39.9h-.2c-.5 0-.9-.3-1-.8l-.3-1.2-.2-.7c-.1-.5.2-1 .8-1.1.5-.1 1.1.2 1.2.7l.4 1.9c.2.5-.1 1.1-.7 1.2zm-1.3-5.7c-.1 0-.2.1-.3.1-.4 0-.8-.2-.9-.6-.3-.7-.5-1.2-.8-1.7-.3-.5-.1-1 .4-1.3.5-.2 1.1-.1 1.4.4.3.6.6 1.2.8 1.9.2.5 0 1.1-.6 1.2zM24 29.7c-.2 0-.4 0-.5-.1-.5-.3-1-.5-1.6-.7-.5-.2-.8-.7-.6-1.2.2-.5.7-.8 1.3-.6.7.2 1.4.5 2 .9.5.3.6.9.3 1.3-.2.3-.6.4-.9.4zm-5.7-1.2c-.7 0-1.3 0-1.9.1h-.1c-.5 0-.9-.4-1-.9-.1-.5.3-1 .9-1.1.7-.1 1.4-.1 2.1-.1.5 0 1 .4 1 1 0 .5-.4 1-1 1zm-6.9 2c-.2.1-.4.2-.6.2-.3 0-.6-.1-.8-.4-.3-.4-.3-1.1.2-1.4.6-.4 1.2-.8 1.9-1.1.5-.2 1.1 0 1.3.5.2.5 0 1.1-.5 1.3-.6.3-1.1.6-1.5.9zm-4.9 19c-1.7 0-3-1.3-3-3s1.3-3 3-3 3 1.3 3 3-1.3 3-3 3zm0-4c-.6 0-1 .4-1 1s.4 1 1 1 1-.4 1-1-.4-1-1-1zm1.8-10.6c-.1.4-.5.7-.9.7-.1 0-.2 0-.3-.1-.5-.2-.8-.8-.6-1.3.2-.7.5-1.4.9-2 .3-.5.9-.7 1.4-.4.5.3.7.9.4 1.4-.4.6-.7 1.1-.9 1.7zm-.7 3.7c-.1.6-.1 1.2-.1 1.9 0 .6-.4 1-1 1s-1-.4-1-1c0-.7 0-1.4.1-2.1 0-.5.5-1 1.1-.9.5.1.9.5.9 1.1zm41.2 2.7c.2-.5.7-.8 1.3-.6.5.2.8.7.6 1.2-.2.7-.5 1.3-.8 1.9-.2.3-.5.5-.9.5-.2 0-.3 0-.4-.1-.5-.2-.7-.8-.4-1.3.2-.4.4-1 .6-1.6zm1.6-2c-.6 0-1-.5-.9-1.1V36.5c0-.5.4-1 .9-1.1.6-.1 1 .4 1.1.9v2c-.1.6-.5 1-1.1 1 .1 0 0 0 0 0z"/></svg>