<svg id="Layer_1" xmlns="http://www.w3.org/2000/svg" width="64" height="64" viewBox="0 0 64 64"><style>.st0{fill-rule:evenodd;clip-rule:evenodd;}</style><path class="st0" d="M61 21c0 .4-.3.8-.7.9L48 26.5l2 18.4v.1c0 .6-.4 1-1 1-.2 0-.3 0-.4-.1l-7.4-3.7-7.5 5.6c-.3.1-.5.2-.7.2s-.4-.1-.6-.2l-7.5-5.6-7.4 3.7c-.2.1-.3.1-.5.1-.6 0-1-.4-1-1v-.1l1.9-18.4-5.4-2c-.8 1.6-1.7 3.7-2.2 5.8 1 .5 1.7 1.5 1.7 2.7 0 1.1-.7 2.1-1.6 2.6L13 52.9v.1c0 .6-.4 1-1 1-.5 0-.9-.4-1-.9L9.3 41.7C8.4 47.9 7 53.1 7 53.1c-.1.5-.5.9-1 .9-.6 0-1-.4-1-1v-.1s0-.1.1-.2c.4-1.4 2.4-8.7 2.8-16.8C6.8 35.4 6 34.3 6 33c0-1.4 1-2.6 2.3-2.9.5-2.6 1.6-4.8 2.5-6.3l-5.1-1.9c-.4-.1-.7-.5-.7-.9s.3-.8.7-.9l27-10c.1 0 .2-.1.3-.1.1 0 .2 0 .3.1l27 10c.4.1.7.5.7.9zM9 32c-.6 0-1 .4-1 1s.4 1 1 1 1-.4 1-1-.4-1-1-1zm15.6 8.1c.1-.1.2-.1.4-.1s.4.1.6.2l7.4 5.5 7.4-5.5c.2-.1.4-.2.6-.2.2 0 .3 0 .4.1l6.4 3.2-1.7-16.1-12.8 4.7c-.1.1-.2.1-.3.1-.1 0-.2 0-.3-.1l-12.8-4.7-1.7 16.1 6.4-3.2zm8.4-28L8.9 21 33 29.9 57.1 21 33 12.1z"/></svg>