<svg xmlns="http://www.w3.org/2000/svg" viewBox="0 0 64 64"><path fill-rule="evenodd" clip-rule="evenodd" d="M58.5 54.5h-52c-1.1 0-2-.9-2-2v-40c0-1.1.9-2 2-2h52c1.1 0 2 .9 2 2v40c0 1.1-.9 2-2 2zm0-42h-52v40h52v-40zM10.7 36.9l6-8c.2-.2.5-.4.8-.4.4 0 .8.3.9.7L23.6 44l8.9-17.9c0-.1.1-.2.2-.3l6-6c.2-.2.4-.3.7-.3.4 0 .7.2.9.5l6.9 12.1 5.3-14.9c.1-.4.5-.7.9-.7.6 0 1 .4 1 1 0 .1 0 .2-.1.3l-6 17c-.1.4-.5.7-.9.7s-.7-.2-.9-.5l-7.4-12.9-5 5L24.2 47c-.2.3-.5.6-.9.6s-.8-.3-.9-.7L17 31.7l-4.9 6.5c-.2.2-.5.4-.8.4-.6 0-1-.4-1-1 .2-.3.3-.5.4-.7z"/></svg>