<svg id="Layer_1" xmlns="http://www.w3.org/2000/svg" width="64" height="64" viewBox="0 0 64 64"><style>.st0{fill:#010101;}</style><path class="st0" d="M31.2 55.5c.2.2.6.4.9.4.3 0 .6-.1.9-.4l22.8-22.7c2.8-2.8 4.3-6.4 4.3-10.3 0-3.8-1.5-7.5-4.2-10.2-2.7-2.7-6.4-4.2-10.2-4.2-3.9 0-7.5 1.5-10.3 4.3l-3.3 3.3-3.3-3.3C26 9.6 22.4 8.1 18.5 8.1c-3.8 0-7.5 1.5-10.2 4.2-2.7 2.7-4.2 6.3-4.2 10.2 0 3.9 1.5 7.5 4.3 10.3 3 3.1 22.6 22.5 22.8 22.7zM9.9 14.1c2.3-2.2 5.3-3.5 8.4-3.5 3.2 0 6.3 1.3 8.6 3.5l4.2 4.2c.2.2.6.4.9.4.3 0 .6-.1.9-.4l4.2-4.2c2.3-2.3 5.3-3.5 8.6-3.5 3.2 0 6.2 1.2 8.5 3.5 2.3 2.2 3.5 5.2 3.5 8.4s-1.3 6.2-3.6 8.5l-22 21.9C29.2 50 19.7 40.6 14 35h2.2c.3 0 .6-.1.8-.3l2.3-1.8 2.1 2c.3.3.8.4 1.2.3.4-.1.8-.5.9-1l1.3-6.6 1.4 13.1c.1.6.5 1 1.1 1.1h.1c.5 0 1-.3 1.2-.8l2.4-6.9.7.3c.6.2 1.3 0 1.6-.6l1.6-3.2 1.8 4.4c.2.4.5.7.9.7.4.1.8 0 1.1-.3l1.3-1.2 1.1.6c.2.1.4.1.6.1h2.1c.3.4.8.6 1.4.6 1 0 1.9-.8 1.9-1.9 0-1-.8-1.9-1.9-1.9-.6 0-1 .2-1.4.6H42l-1.6-.9c-.5-.2-1-.2-1.4.2l-.6.6-2.2-5.2c-.2-.4-.6-.7-1.1-.8-.5 0-.9.2-1.2.7l-2.3 4.6-.8-.3c-.3-.1-.7-.1-1 0-.3.1-.5.4-.7.7l-1 2.8-1.7-16c-.1-.6-.6-1.1-1.2-1.1s-1.2.4-1.3 1l-2.4 12.6-1.2-1.2c-.4-.4-1.2-.5-1.6-.1l-2.8 2.2h-4.3l-1.5-1.5c-2.3-2.3-3.6-5.3-3.6-8.5-.1-2.8 1.2-5.7 3.4-8z"/></svg>