<svg xmlns="http://www.w3.org/2000/svg" viewBox="0 0 64 64"><path fill-rule="evenodd" clip-rule="evenodd" d="M31.5 59.5c-15.5 0-28-12.5-28-28s12.5-28 28-28 28 12.5 28 28-12.5 28-28 28zm0-54c-14.4 0-26 11.6-26 26s11.6 26 26 26 26-11.6 26-26-11.6-26-26-26zm-4.6 37.8c.3 0 .5-.1.8-.1.3 0 .5-.1.7-.2.3-.1.6-.3.7-.6.1-.3.2-.6.2-1v-9.8c0-.4-.1-.7-.2-1-.2-.3-.4-.5-.6-.7-.2-.1-.5-.3-.8-.4-.4-.1-.7-.2-1-.2v-1.2l7.4-.4.2.3v13.3c0 .4.1.7.2 1 .2.3.4.5.7.6.2.1.4.2.7.3.2.1.5.1.8.2v1.2h-9.6v-1.3zm4.4-18.6c-.8 0-1.5-.3-2.1-.9-.6-.6-.9-1.3-.9-2.2 0-.9.3-1.6.9-2.2.6-.6 1.3-.9 2.1-.9s1.5.3 2.1.9c.6.6.9 1.3.9 2.2 0 .9-.3 1.6-.9 2.2-.6.6-1.3.9-2.1.9z"/></svg>