<?xml version="1.0" standalone="no"?><!DOCTYPE svg PUBLIC "-//W3C//DTD SVG 1.1//EN" "http://www.w3.org/Graphics/SVG/1.1/DTD/svg11.dtd"><svg width="100%" height="100%" viewBox="0 0 32 32" version="1.1" xmlns="http://www.w3.org/2000/svg" xmlns:xlink="http://www.w3.org/1999/xlink" xml:space="preserve" style="fill-rule:evenodd;clip-rule:evenodd;stroke-linejoin:round;stroke-miterlimit:1.41421;"><path d="M5,6.991c0,-1.1 0.89,-1.991 1.991,-1.991l18.018,0c1.1,0 1.991,0.89 1.991,1.991l0,18.018c0,1.1 -0.89,1.991 -1.991,1.991l-18.018,0c-1.1,0 -1.991,-0.89 -1.991,-1.991l0,-18.018ZM7,7.993c0,-0.548 0.445,-0.993 0.993,-0.993l16.014,0c0.548,0 0.993,0.445 0.993,0.993l0,16.014c0,0.548 -0.445,0.993 -0.993,0.993l-16.014,0c-0.548,0 -0.993,-0.445 -0.993,-0.993l0,-16.014ZM10,10l12,0l0,2l-12,0l0,-2ZM10,15l12,0l0,2l-12,0l0,-2ZM10,20l12,0l0,2l-12,0l0,-2Z" style="fill:#000;"/></svg>