<svg id="Layer_1" xmlns="http://www.w3.org/2000/svg" width="64" height="64" viewBox="0 0 64 64"><style>.st0{fill-rule:evenodd;clip-rule:evenodd;}</style><path class="st0" d="M59.5 60.5h-10c-.6 0-1-.4-1-1v-5h-5c-.6 0-1-.4-1-1v-5h-5c-.1 0-.3 0-.4-.1-.1-.1-.2-.1-.3-.2l-8.6-8.6c-.3.1-.7.2-1 .3-.2 0-.4.1-.5.1-.3.1-.6.1-.9.2-.3.1-.6.1-.9.1-.2 0-.5.1-.7.1-.5.1-1.1.1-1.6.1-9.9 0-18-8.1-18-18s8.1-18 18-18 18 8.1 18 18c0 .6 0 1.1-.1 1.6 0 .2-.1.5-.1.7 0 .3-.1.6-.1.8-.1.3-.1.6-.2.9 0 .2-.1.4-.1.5-.1.3-.2.7-.3 1l20.6 20.6c.1.1.2.2.2.3.1.1.1.3.1.4v10c-.1.8-.5 1.2-1.1 1.2zm-1-10.6l-6.4-6.4-10.7-10.7-3.6-3.6c-.2-.2-.4-.4-.4-.8 0-.2 0-.3.1-.4.6-1.7 1-3.6 1-5.5 0-8.8-7.2-16-16-16s-16 7.2-16 16 7.2 16 16 16c1.9 0 3.8-.4 5.5-1 .1-.1.3-.1.4-.1.3 0 .6.1.8.4l3.6 3.6 3.1 3.1 2 2h5.6c.6 0 1 .4 1 1v5h5c.6 0 1 .4 1 1v5h8v-8.6zm-40-25.4c-3.3 0-6-2.7-6-6s2.7-6 6-6 6 2.7 6 6-2.7 6-6 6zm0-10c-2.2 0-4 1.8-4 4s1.8 4 4 4 4-1.8 4-4-1.8-4-4-4z"/></svg>