<svg id="Layer_1" xmlns="http://www.w3.org/2000/svg" width="64" height="64" viewBox="0 0 64 64"><style>.st0{fill-rule:evenodd;clip-rule:evenodd;}</style><path class="st0" d="M32.5 60.5c-15.5 0-28-12.5-28-28s12.5-28 28-28 28 12.5 28 28-12.5 28-28 28zm0-54c-14.3 0-26 11.7-26 26s11.7 26 26 26 26-11.7 26-26-11.7-26-26-26zm4.1 27l3.9 15h-16l3.9-15c-2.9-1.5-4.9-4.5-4.9-8 0-5 4-9 9-9s9 4 9 9c0 3.5-2 6.5-4.9 8zm-4.1-15c-3.9 0-7 3.1-7 7 0 2.6 1.5 5 3.8 6.2l1.4.7-.3 1.6-3.3 12.5h10.8L34.6 34l-.4-1.6 1.4-.7c2.4-1.2 3.8-3.6 3.8-6.2.1-3.9-3-7-6.9-7z"/></svg>