<svg id="Layer_1" xmlns="http://www.w3.org/2000/svg" width="64" height="64" viewBox="0 0 64 64"><style>.st0{fill-rule:evenodd;clip-rule:evenodd;}</style><path class="st0" d="M60 33.4l-27 16c-.1.1-.3.2-.5.2s-.4-.1-.5-.2l-27-16c-.3-.2-.5-.5-.5-.8 0-.6.4-1 1-1 .2 0 .4.1.5.2l26.5 15.7L59 31.6c.1-.1.3-.2.5-.2.6 0 1 .4 1 1 0 .5-.2.8-.5 1zm0-5.1l-27 16c-.1.1-.3.2-.5.2s-.4-.1-.5-.2l-27-16c-.3-.2-.5-.5-.5-.8 0-.4.2-.7.5-.8l27-16c.1-.1.3-.2.5-.2s.4.1.5.2l27 16c.3.2.5.5.5.8 0 .4-.2.7-.5.8zM32.5 12.7l-25 14.8 25 14.8 25-14.8-25-14.8zm-27 23.8c.2 0 .4.1.5.2l26.5 15.7L59 36.6c.1-.1.3-.2.5-.2.6 0 1 .4 1 1 0 .4-.2.7-.5.8l-27 16c-.1.1-.3.2-.5.2s-.4-.1-.5-.2l-27-16c-.3-.2-.5-.5-.5-.8 0-.5.4-.9 1-.9z"/></svg>