<svg xmlns="http://www.w3.org/2000/svg" viewBox="0 0 64 64"><path fill-rule="evenodd" clip-rule="evenodd" d="M45.3 19l-11 18.5h4.2c.6 0 1 .4 1 1 0 .2 0 .3-.1.4l-10 20c-.2.3-.5.6-.9.6-.6 0-1-.4-1-1v-15h-9c-.6 0-1-.4-1-1 0-.1 0-.3.1-.4L25 23.5h-6.5c-.6 0-1-.4-1-1 0-.1 0-.3.1-.4l8-18c.2-.3.5-.6.9-.6h16c.6 0 1 .4 1 1 0 .1 0 .3-.1.4L38 17.5h6.5c.6 0 1 .4 1 1 0 .2-.1.4-.2.5zm-9.7-.9L41 5.5H27.1l-7.1 16h6.5c.6 0 1 .4 1 1 0 .1 0 .3-.1.4L20 41.5h8.5c.6 0 1 .4 1 1v11.8l7.4-14.8h-4.4c-.6 0-1-.4-1-1 0-.2.1-.4.2-.5l11.1-18.5h-6.2c-.6 0-1-.4-1-1-.1-.1-.1-.3 0-.4z"/></svg>