<svg xmlns="http://www.w3.org/2000/svg" viewBox="0 0 64 64"><path fill-rule="evenodd" clip-rule="evenodd" d="M54.5 36.5h-46c-2.8 0-5-2.2-5-5s2.2-5 5-5h46c2.8 0 5 2.2 5 5s-2.2 5-5 5zm0-8h-46c-1.7 0-3 1.3-3 3s1.3 3 3 3h46c1.7 0 3-1.3 3-3s-1.3-3-3-3zm0-9h-46c-2.8 0-5-2.2-5-5s2.2-5 5-5h46c2.8 0 5 2.2 5 5s-2.2 5-5 5zm0-8h-46c-1.7 0-3 1.3-3 3s1.3 3 3 3h46c1.7 0 3-1.3 3-3s-1.3-3-3-3zm-46 32h46c2.8 0 5 2.2 5 5s-2.2 5-5 5h-46c-2.8 0-5-2.2-5-5s2.2-5 5-5zm0 8h46c1.7 0 3-1.3 3-3s-1.3-3-3-3h-46c-1.7 0-3 1.3-3 3s1.3 3 3 3z"/></svg>