<svg id="Layer_1" xmlns="http://www.w3.org/2000/svg" width="64" height="64" viewBox="0 0 64 64"><style>.st0{fill:#010101;}</style><path class="st0" d="M45.6 54.6c-3.6 3.6-8.6 5.9-14.1 5.9S21 58.3 17.4 54.6c-3.6-3.6-5.9-8.6-5.9-14.1s2.2-10.4 5.8-14c0 0 0-.1.1-.1l.1-.1c.6-.6 1.3-1.2 2-1.7v-8c0-6.6 5.4-12 12-12s12 5.4 12 12v8c.7.5 1.4 1.1 2 1.7 0 0 .1 0 .1.1l.1.1c3.6 3.6 5.8 8.5 5.8 14S49.3 51 45.6 54.6zm-4.1-38.1c0-5.5-4.5-10-10-10s-10 4.5-10 10v6.7c2.9-1.7 6.4-2.7 10-2.7s7.1 1 10 2.7v-6.7zm3.4 12L41.4 32c-.4.4-1 .4-1.4 0s-.4-1 0-1.4l3.5-3.5c-2.9-2.6-6.8-4.3-11-4.6v4.9c0 .6-.4 1-1 1s-1-.4-1-1v-4.9c-4.2.2-8 1.9-11 4.6l3.5 3.5c.4.4.4 1 0 1.4s-1 .4-1.4 0l-3.5-3.5c-2.6 2.9-4.3 6.8-4.6 11h5c.6 0 1 .4 1 1s-.4 1-1 1h-5c.2 4.2 1.9 8 4.6 11l3.5-3.5c.4-.4 1-.4 1.4 0s.4 1 0 1.4l-3.5 3.5c2.9 2.6 6.8 4.3 11 4.6v-4.9c0-.6.4-1 1-1s1 .4 1 1v4.9c4.2-.2 8-1.9 11-4.6L40 50.4c-.4-.4-.4-1 0-1.4s1-.4 1.4 0l3.5 3.5c2.6-2.9 4.3-6.8 4.6-11h-5c-.6 0-1-.4-1-1s.4-1 1-1h5c-.3-4.2-2-8-4.6-11zm-13.4 20c-4.4 0-8-3.6-8-8s3.6-8 8-8 8 3.6 8 8-3.6 8-8 8zm0-14c-3.3 0-6 2.7-6 6s2.7 6 6 6 6-2.7 6-6-2.7-6-6-6zm0 8c-1.1 0-2-.9-2-2s.9-2 2-2 2 .9 2 2-.9 2-2 2z"/></svg>