<svg xmlns="http://www.w3.org/2000/svg" width="34" height="44" viewBox="0 0 34 44"><path d="M17 25c-1.657 0-3 1.344-3 3 0 1.305.838 2.403 2 2.816V34c0 .553.448 1 1 1 .553 0 1-.447 1-1v-3.184c1.162-.413 2-1.512 2-2.816 0-1.656-1.343-3-3-3zm13-9h-2.002v-5.004C27.998 4.922 23.074 0 17 0S6.002 4.923 6.002 10.995V16H4c-2.21 0-4 1.79-4 4v20c0 2.21 1.79 4 4 4h26c2.21 0 4-1.79 4-4V20c0-2.21-1.79-4-4-4zM7.994 10.996C8.004 6.03 12.03 2.01 17 2.01s8.997 4.02 9.006 8.986V16H7.996v-5.004zM32 40c0 1.104-.896 2-2 2H4c-1.104 0-2-.896-2-2V20c0-1.104.896-2 2-2h26c1.104 0 2 .896 2 2v20z"/></svg>