<svg viewBox="0 0 64 64" xmlns="http://www.w3.org/2000/svg" fill-rule="evenodd" clip-rule="evenodd" stroke-linejoin="round" stroke-miterlimit="1.414"><path d="M56 8H35c-1.196 0-2.267.528-3 1.36C31.267 8.528 30.196 8 29 8H8c-2.21 0-4 1.79-4 4v36s0 4 4 4h19s4 0 4 4h2s0-4 4-4h19s4 0 4-4V12c0-2.21-1.79-4-4-4zm-25 6v37.5C30 50 28 50 28 50H8c-2 0-2-2-2-2V12c0-1.104.896-2 2-2h21c1.104 0 2 .896 2 2v2zm27 0v34s0 2-2 2H36s-2 0-3 1.5V12c0-1.104.896-2 2-2h21c1.104 0 2 .896 2 2v2z" fill-rule="nonzero"/></svg>