<svg xmlns="http://www.w3.org/2000/svg" viewBox="0 0 64 64"><path fill-rule="evenodd" clip-rule="evenodd" d="M57.1 57.1c-2 2-4.2 2.9-4.9 2.1L19.8 26.9c-.8-.8.2-3 2.1-4.9 2-2 4.2-2.9 4.9-2.1l32.4 32.4c.8.6-.2 2.8-2.1 4.8zM27.6 23.3l-1.4-1.4c-.4-.4-1.7.2-2.8 1.4-1.2 1.2-1.8 2.4-1.4 2.8l.4.4 9 9c-.4-.4.2-1.7 1.4-2.8 1.2-1.2 2.4-1.8 2.8-1.4l-8-8zm8 8zm8.9-1.8l-1.1-3.9-3.9-1.1 3.9-1.1 1.1-3.9 1.1 3.9 3.9 1.1-3.9 1.1-1.1 3.9zm-2-12l-1.6-5.4-5.4-1.6 5.4-1.6 1.6-5.4 1.6 5.4 5.4 1.6-5.4 1.6-1.6 5.4zm-12 0l-.7-2.3-2.3-.7 2.3-.7.7-2.3.7 2.3 2.3.7-2.3.7-.7 2.3zm-14-4l-1.1-3.9-3.9-1.1 3.9-1.1 1.1-3.9 1.1 3.9 3.9 1.1-3.9 1.1-1.1 3.9zm-2.7 21.7l4.7 1.3-4.7 1.3-1.3 4.7-1.3-4.7-4.7-1.3 4.7-1.3 1.3-4.7 1.3 4.7zM6.5 23.5l-.7-2.3-2.3-.7 2.3-.7.7-2.3.7 2.3 2.3.7-2.3.7-.7 2.3zm15.3 20.3l.7-2.3.7 2.3 2.3.7-2.3.7-.7 2.3-.7-2.3-2.3-.7 2.3-.7z"/></svg>