<svg id="Layer_1" xmlns="http://www.w3.org/2000/svg" width="64" height="64" viewBox="0 0 64 64"><style>.st0{fill-rule:evenodd;clip-rule:evenodd;}</style><path class="st0" d="M60.5 55.5c0 .6-.4 1-1 1h-54c-.6 0-1-.4-1-1 0-.2.1-.3.1-.5l10-18c.2-.3.5-.5.9-.5h2c.6 0 1 .4 1 1s-.4 1-1 1h-1.4l-8.9 16h50.6l-8.9-16h-1.4c-.6 0-1-.4-1-1s.4-1 1-1h2c.4 0 .7.2.9.5l10 18c0 .2.1.3.1.5zm-44-31c0-8.8 7.2-16 16-16s16 7.2 16 16c0 10-16 26-16 26s-16-16-16-26zm16-14c-7.7 0-14 6.3-14 14 0 8 14 23 14 23s14-15 14-23c0-7.7-6.3-14-14-14zm-8 14c0-4.4 3.6-8 8-8s8 3.6 8 8-3.6 8-8 8-8-3.6-8-8zm14 0c0-3.3-2.7-6-6-6s-6 2.7-6 6 2.7 6 6 6 6-2.7 6-6z"/></svg>