<svg xmlns="http://www.w3.org/2000/svg" viewBox="0 0 64 64"><path d="M50.4 38.7c.8-1.9-.3-3.4-1.5-4.5.1 0 .3-.1.4-.1.8-.4 1.1-1.2 1.1-1.2 1.4-3.2-3.2-5.7-3.6-6V8c0-3.3-2.7-6.1-6-6.1H22.5c-3.3 0-6 2.7-6 6.1v24.7l-7.3 6.7c-.1.1-.2.3-.2.4v20.6c0 .3.2.6.6.6.3 0 .6-.2.6-.6V40s10.1-9.3 10.6-9.7c1-.9 3-2.3 4.1-1.2 0 0 .2.2.3.8.1.8-.1 2.5-2 5.1-.7 1-8.8 11.7-8.8 11.7-.2.2-.1.6.1.8.2.2.6.1.8-.1l1-1.4v5.3c0 3.3 2.7 6.1 6 6.1H34l-2.7 4.7c-.2.3-.1.6.2.8.1 0 .2.1.3.1.2 0 .4-.1.5-.3l3-5.3h5.6c3.1 0 5.7-2.5 6-5.6.2 0 .4.1.5.1 1 0 1.8-.8 2-1.3.8-1.9 0-3.4-1-4.4.4 0 .7-.1 1-.2.9-.4 1.1-1.2 1.1-1.2.8-1.9-.3-3.4-1.5-4.5.1 0 .3-.1.4-.1.8-.7 1-1.5 1-1.5zm-1-6.3s-.1.4-.6.6c-.4.2-.9.2-1.6-.1l-.2-.1c-.1 0-.1-.1-.2-.1v-4.5c1.1.7 3.4 2.3 2.6 4.2zm-25.6 3.8c3.6-5.4 2.4-7 2.4-7-.2-.6-.5-.9-.5-1-1.1-1-2.8-.9-4.7.5V10.9h21.7v35.9H20.9V40l.6-.9c1-.9 1.7-2 2.3-2.9zm17 20.1H22.4c-2.7 0-4.8-2.2-4.8-4.9v-6.8l2.2-2.9v5.8c0 .3.2.6.6.6h22.9c.3 0 .6-.2.6-.6V10.4c0-.3-.2-.6-.6-.6h-23c-.3 0-.6.2-.6.6v19.4c-.4.4-2.2 2-2.2 2V8c0-2.7 2.2-4.9 4.8-4.9h18.4c2.7 0 4.8 2.2 4.8 4.9v43.3c.2 2.7-2 5-4.7 5zm7.4-6.2c-.1.2-.4.9-1.2.6h-.1v-4.2c.7.5 2 1.9 1.3 3.6zm1.2-5.9s-.1.4-.6.6c-.4.2-1 .1-1.8-.2h-.1V40c1 .6 3.3 2.4 2.5 4.2zm-.7-5.3c-.4.2-.9.2-1.6-.1l-.1-.1c-.1 0-.1-.1-.2-.1V34c1 .6 3.4 2.4 2.5 4.2.1.1-.1.5-.6.7z"/><path d="M31.2 49.3c-1.5 0-2.8 1.2-2.8 2.8s1.2 2.8 2.8 2.8c1.5 0 2.8-1.2 2.8-2.8s-1.2-2.8-2.8-2.8zm0 4.4c-.9 0-1.6-.7-1.6-1.6 0-.9.7-1.6 1.6-1.6.9 0 1.6.7 1.6 1.6.1.9-.6 1.6-1.6 1.6z"/></svg>