<svg id="Layer_1" xmlns="http://www.w3.org/2000/svg" width="64" height="64" viewBox="0 0 64 64"><style>.st0{fill:#010101;}</style><path d="M48 6H16C9.8 6 4.6 10.8 4 16.8v20.4c.6 6 5.8 10.8 12 10.8h2v10l14-10h16c6.6 0 12-5.4 12-12V18c0-6.6-5.4-12-12-12zm10 30c0 5.5-4.5 10-10 10H31.3L20 54.1V46h-4c-5.5 0-10-4.5-10-10V18c0-5.5 4.5-10 10-10h32c5.5 0 10 4.5 10 10v18z"/><path class="st0" d="M22.5 21.5h-2.4v4.6h-4.8v-4.6h-2.4v11.8h2.4v-4.9h4.8v4.9h2.4V21.5zm5.9 3.5c-2.5 0-4.3 1.8-4.3 4.2s1.8 4.2 4.3 4.2 4.3-1.7 4.3-4.1-1.8-4.3-4.3-4.3zm0 2.1c1.1 0 1.9.9 1.9 2.2 0 1.2-.8 2.1-1.9 2.1-1.1 0-1.9-.9-1.9-2.1 0-1.3.8-2.2 1.9-2.2zm5.7 6.2h2.4V21.1h-2.4v12.2zm7.6-8.3c-2.2 0-3.6 1.8-3.6 4.2s1.5 4.2 3.6 4.2c1.2 0 2-.5 2.4-1.1l.1.9h2.1v-8.1h-2.1l-.1.9c-.5-.5-1.3-1-2.4-1zm.5 2.1c.8 0 1.3.4 1.7 1v2.3c-.4.6-.8 1-1.7 1-1.1 0-1.8-.8-1.8-2.2 0-1.3.8-2.1 1.8-2.1zm6.3 2.5h2.4v-8.1h-2.4v8.1zm1.2 1.2c-.8 0-1.4.6-1.4 1.4 0 .8.6 1.4 1.4 1.4s1.4-.6 1.4-1.4c0-.9-.6-1.4-1.4-1.4z"/></svg>