<svg xmlns="http://www.w3.org/2000/svg" viewBox="0 0 64 64"><path fill-rule="evenodd" clip-rule="evenodd" d="M57.5 59.5h-52c-1.1 0-2-.9-2-2v-37c0-.2 0-.3.1-.4l8-16c.2-.3.5-.6.9-.6h38c.4 0 .7.2.9.6l8 16c.1.1.1.3.1.4v37c0 1.1-.9 2-2 2zm-28-54l-2 16v8h8v-8l-2-16h-4zm28 19v-3h-17c-.6 0-1-.4-1-1s.4-1 1-1h16.4l-7-14H35.5l2 16v8c0 2-2 2-2 2h-8c-2 0-2-2-2-2v-8l2-16H13.1l-7 14h16.4c.6 0 1 .4 1 1s-.4 1-1 1h-17v36h52v-33zm-47 21h18c.6 0 1 .4 1 1s-.4 1-1 1h-18c-.6 0-1-.4-1-1s.4-1 1-1zm0 6h14c.6 0 1 .4 1 1s-.4 1-1 1h-14c-.6 0-1-.4-1-1s.4-1 1-1zm35.3.3l4.3-4.3h-1.6c-.6 0-1-.4-1-1s.4-1 1-1h4c.6 0 1 .4 1 1v4c0 .6-.4 1-1 1s-1-.4-1-1v-1.6l-4.3 4.3c-.2.2-.4.3-.7.3-.6 0-1-.4-1-1 0-.3.1-.5.3-.7z"/></svg>