<svg id="Layer_1" xmlns="http://www.w3.org/2000/svg" width="64" height="64" viewBox="0 0 64 64"><style>.st0{fill:#010101;}</style><path class="st0" d="M58.3 54.3c-2.2 2.7-5.3 5.9-10.2 6.1h-.7c-6.8 0-15.5-5.5-27.2-17.1l-.1-.1C7.9 29.7 2.9 21 3.6 14.9c.5-4.2 3.6-6.6 6.8-8.8 1.8-1.3 3.3-1.8 4.9-1.5 2.5.4 4.8 2.8 8.5 8.6 4.6 7.1 3.3 9 .6 11.2-.2.2-.5.4-.8.7l-.1.1c-.3.2-1.2 1-1.2 1.7 0 .2 0 .4.3.7 2 2 6.7 7.1 6.7 7.1.2.2 5.3 5.1 7.3 7 .3.2.5.4.8.3.8 0 1.8-.9 2.1-1.2l.1-.1.6-.6c2.5-2.3 4.4-3.5 11.2 1 4.7 3.1 7.4 6.3 7.9 9.2.3 1.5 0 2.9-1 4z"/></svg>