<svg id="Layer_1" xmlns="http://www.w3.org/2000/svg" width="64" height="64" viewBox="0 0 64 64"><style>.st0{fill-rule:evenodd;clip-rule:evenodd;}</style><path class="st0" d="M59.3 54.3c-2.2 2.7-5.3 5.9-10.2 6.1h-.7c-6.8 0-15.5-5.5-27.2-17.1l-.1-.1C8.9 29.7 3.9 21 4.6 14.9c.5-4.2 3.6-6.6 6.8-8.8 1.8-1.3 3.3-1.8 4.9-1.5 2.5.4 4.8 2.8 8.5 8.6 4.6 7.1 3.3 9 .6 11.2-.2.2-.5.4-.8.7l-.1.1c-.3.2-1.2 1-1.2 1.7 0 .2 0 .4.3.7 2 2 6.7 7.1 6.7 7.1.2.2 5.3 5.1 7.3 7 .3.2.5.4.8.3.8 0 1.8-.9 2.1-1.2l.1-.1.6-.6c2.5-2.3 4.4-3.5 11.2 1 4.7 3.1 7.4 6.3 7.9 9.2.3 1.5 0 2.9-1 4zm-.9-3.7c-.4-2.3-2.8-5.1-7-7.9-5.8-3.8-6.8-2.9-8.7-1.2l-.6.6c-.3.3-1.8 1.7-3.5 1.8-.9 0-1.7-.3-2.3-.9-2-1.9-7.3-7-7.3-7s-4.8-5.2-6.7-7.2c-.7-.7-1-1.4-.9-2.3.1-1.6 1.6-2.8 2-3 .3-.2.5-.5.8-.7 1.9-1.6 3-2.5-1-8.7C19.9 9 17.8 6.7 16 6.4c-.9-.2-2 .2-3.3 1.2-3.5 2.4-5.6 4.4-6 7.5-.8 5.5 4.3 14 16 26.9 11.4 11.5 20 16.9 26.3 16.5 3.2-.2 5.8-1.8 8.7-5.4.6-.7.9-1.6.7-2.5z"/></svg>