<svg xmlns="http://www.w3.org/2000/svg" viewBox="0 0 64 64"><path fill-rule="evenodd" clip-rule="evenodd" d="M54.2 35.4c-1 2.3-2.6 4.4-4.7 6.2v4.9c0 2.8-2.2 5-5 5-2.7 0-4.9-2.2-5-4.9-2.2.6-4.6.9-7 .9-2.4 0-4.8-.3-7-.9-.1 2.7-2.3 4.9-5 4.9-2.8 0-5-2.2-5-5v-4.9c-2.7-2.3-4.6-5.2-5.5-8.3-2.9-2.3-6.5-6-6.5-10.8 0-.6.4-1 1-1s1 .4 1 1c0 3.3 2 5.9 4 7.7v-.7c0-9.9 10.3-18 23-18 5.9 0 11.2 1.7 15.3 4.6 1.2-1.1 2.9-2.6 4.7-2.6.6 0 1 .4 1 1s-.4 1-1 1c-1.3 0-2.4 1-3.1 1.8 2.1 1.8 3.8 3.9 4.8 6.3 3 .3 5.3 2.9 5.3 5.9s-2.3 5.6-5.3 5.9zm-.7-9.9h-.7c-2.3-6.9-10.5-12-20.3-12-11.6 0-21 7.2-21 16 0 4.4 2.3 8.3 6 11.2v5.8c0 1.7 1.3 3 3 3s3-1.3 3-3v-2.6c2.7 1 5.8 1.6 9 1.6s6.3-.6 9-1.6v2.6c0 1.7 1.3 3 3 3s3-1.3 3-3v-5.8c2.5-2 4.4-4.4 5.3-7.2h.7c2.2 0 4-1.8 4-4s-1.8-4-4-4zm-13-5c-.3 0-.5-.1-.7-.3 0 0-1.9-1.7-7.3-1.7s-7.3 1.7-7.3 1.7c-.4.4-1 .4-1.4 0-.4-.4-.4-1 0-1.4.2-.2 2.5-2.3 8.7-2.3s8.5 2.1 8.7 2.3c.4.4.4 1 0 1.4-.2.2-.4.3-.7.3z"/></svg>