<svg xmlns="http://www.w3.org/2000/svg" viewBox="0 0 64 64"><path fill-rule="evenodd" clip-rule="evenodd" d="M59.2 13.2l-2.3 2.3 2.3 2.3c.2.2.3.4.3.7 0 .6-.4 1-1 1-.3 0-.5-.1-.7-.3l-2.3-2.3-2.3 2.3c-.2.2-.4.3-.7.3-.6 0-1-.4-1-1 0-.3.1-.5.3-.7l2.3-2.3-2.3-2.3c-.2-.2-.3-.4-.3-.7 0-.6.4-1 1-1 .3 0 .5.1.7.3l2.3 2.3 2.3-2.3c.2-.2.4-.3.7-.3.6 0 1 .4 1 1 0 .3-.1.5-.3.7zM45.5 59.5c-4.4 0-8-3.6-8-8s3.6-8 8-8 8 3.6 8 8-3.6 8-8 8zm0-14c-3.3 0-6 2.7-6 6s2.7 6 6 6 6-2.7 6-6-2.7-6-6-6zm1-10c-.3 0-.5-.1-.7-.3l-2.3-2.3-2.3 2.3c-.2.2-.4.3-.7.3-.6 0-1-.4-1-1 0-.3.1-.5.3-.7l2.3-2.3-2.3-2.3c-.2-.2-.3-.4-.3-.7 0-.6.4-1 1-1 .3 0 .5.1.7.3l2.3 2.3 2.3-2.3c.2-.2.4-.3.7-.3.6 0 1 .4 1 1 0 .3-.1.5-.3.7l-2.3 2.3 2.3 2.3c.2.2.3.4.3.7 0 .6-.4 1-1 1zm-2-22c-.6 0-1-.4-1-1V7.1L24.8 35.4l9.4 9.4c.2.2.3.4.3.7 0 .6-.4 1-1 1-.3 0-.5-.1-.7-.3l-10-10c-.2-.2-.3-.4-.3-.7 0-.2.1-.4.2-.5L42.1 5.5h-5.6c-.6 0-1-.4-1-1s.4-1 1-1h8c.6 0 1 .4 1 1v8c0 .6-.4 1-1 1zm-18 6c-.3 0-.5-.1-.7-.3l-2.3-2.3-2.3 2.3c-.2.2-.4.3-.7.3-.6 0-1-.4-1-1 0-.3.1-.5.3-.7l2.3-2.3-2.3-2.3c-.2-.2-.3-.4-.3-.7 0-.6.4-1 1-1 .3 0 .5.1.7.3l2.3 2.3 2.3-2.3c.2-.2.4-.3.7-.3.6 0 1 .4 1 1 0 .3-.1.5-.3.7l-2.3 2.3 2.3 2.3c.2.2.3.4.3.7 0 .6-.4 1-1 1zm-16 0c-.3 0-.5-.1-.7-.3l-2.3-2.3-2.3 2.3c-.2.2-.4.3-.7.3-.6 0-1-.4-1-1 0-.3.1-.5.3-.7l2.3-2.3-2.3-2.3c-.2-.2-.3-.4-.3-.7 0-.6.4-1 1-1 .3 0 .5.1.7.3l2.3 2.3 2.3-2.3c.2-.2.4-.3.7-.3.6 0 1 .4 1 1 0 .3-.1.5-.3.7l-2.3 2.3 2.3 2.3c.2.2.3.4.3.7 0 .6-.4 1-1 1z"/></svg>