<svg id="Layer_1" xmlns="http://www.w3.org/2000/svg" width="64" height="64" viewBox="0 0 64 64"><style>.st0{fill:#010101;}</style><path class="st0" d="M49.4 51.3h-7.7c-1.7 0-3.1-1-3.6-2.6h-8.3l-8.9-3.5c-3.1-1.3-5-4.1-5-7.1V26.7c0-3.8 1.9-6.7 5-7.9l8.9-3.5h8.3c.5-1.5 1.9-2.6 3.6-2.6h7.7c2.2 0 3.9 1.7 3.9 3.9v31c0 2-1.7 3.7-3.9 3.7zm-19.2-4.7H40v1.3c0 .8.5 1.3 1.3 1.3h8.6c.8 0 1.3-.5 1.3-1.3V16c0-.8-.5-1.3-1.3-1.3h-8.6c-.8 0-1.3.5-1.3 1.3v1.3h-9.8l-8.7 3.5c-2.1.9-3.6 2.9-3.6 5.7v11.9c0 2 1.5 4 3.6 4.9l8.7 3.3z"/><path class="st0" d="M52 21.3h7.7v3.2H52zm0 18.1h7.7v3.2H52zM37.8 20.3h2.1v23.2h-2.1zM4.2 30.8h12.9V33H4.2z"/></svg>