<svg xmlns="http://www.w3.org/2000/svg" width="64" height="64" viewBox="0 0 64 64"><path d="M48 48H32L18 58V48h-2C9.4 48 4 42.6 4 36V18C4 11.4 9.4 6 16 6h32c6.6 0 12 5.4 12 12v18c0 6.6-5.4 12-12 12zm10-30c0-5.5-4.5-10-10-10H16C10.5 8 6 12.5 6 18v18c0 5.5 4.5 10 10 10h4v8.1L31.3 46H48c5.5 0 10-4.5 10-10V18zM44 31c-2.2 0-4-1.8-4-4s1.8-4 4-4 4 1.8 4 4-1.8 4-4 4zm0-6c-1.1 0-2 .9-2 2s.9 2 2 2 2-.9 2-2-.9-2-2-2zm-12 6c-2.2 0-4-1.8-4-4s1.8-4 4-4 4 1.8 4 4-1.8 4-4 4zm0-6c-1.1 0-2 .9-2 2s.9 2 2 2 2-.9 2-2-.9-2-2-2zm-12 6c-2.2 0-4-1.8-4-4s1.8-4 4-4 4 1.8 4 4-1.8 4-4 4zm0-6c-1.1 0-2 .9-2 2s.9 2 2 2 2-.9 2-2-.9-2-2-2z"/></svg>