<svg xmlns="http://www.w3.org/2000/svg" viewBox="0 0 64 64"><path fill-rule="evenodd" clip-rule="evenodd" d="M31.5 59.5c-15.5 0-28-12.5-28-28s12.5-28 28-28 28 12.5 28 28-12.5 28-28 28zm0-54c-14.4 0-26 11.6-26 26s11.6 26 26 26 26-11.6 26-26-11.6-26-26-26zm5.6 23.8l-2 2.2-.3.3c-.4.4-.6.7-.8.9-.2.2-.4.5-.5.8-.1.3-.2.6-.2.9 0 .3-.1.7-.1 1.2v1.6H30V35c0-.6 0-1.2.1-1.6.1-.4.2-.8.4-1.2.2-.3.4-.7.7-1 .3-.3.7-.7 1.1-1.2l1.1-1.1c.4-.4.7-.7 1-1.1.3-.4.5-.8.7-1.2.2-.4.3-.9.3-1.5 0-.5-.1-1-.3-1.5-.2-.5-.4-.9-.7-1.2-.3-.3-.7-.6-1.1-.8-.4-.2-.9-.3-1.4-.3-1.1 0-2 .4-2.6 1.1-.7.7-1.1 1.7-1.2 2.9l-3.4-.4c.3-2.1 1.1-3.7 2.4-4.8 1.3-1.2 3-1.8 4.9-1.8.9 0 1.8.1 2.6.4.8.3 1.5.7 2.1 1.3.6.6 1.1 1.2 1.4 2.1.3.8.5 1.7.5 2.8 0 .9-.1 1.7-.4 2.4-.3.8-.7 1.4-1.1 2zm-5.6 10.5c.6 0 1.1.2 1.5.7.4.5.6 1 .6 1.7 0 .6-.2 1.2-.6 1.7-.4.5-.9.7-1.5.7s-1.1-.2-1.5-.7c-.4-.5-.6-1-.6-1.7 0-.6.2-1.2.6-1.7.4-.5.9-.7 1.5-.7z"/></svg>