<svg xmlns="http://www.w3.org/2000/svg" viewBox="0 0 64 64"><path fill-rule="evenodd" clip-rule="evenodd" d="M59.1 13.3L35.2 30.1c.2.4.3.9.3 1.4 0 2.2-1.8 4-4 4s-4-1.8-4-4 1.8-4 4-4c.5 0 1 .1 1.4.3l5.8-8.2c-2.1-1.3-4.6-2-7.2-2-7.7 0-14 6.3-14 14s6.3 14 14 14 14-6.3 14-14c0-.6.4-1 1-1s1 .4 1 1c0 8.8-7.2 16-16 16s-16-7.2-16-16 7.2-16 16-16c3.1 0 5.9.9 8.4 2.4l5.8-8.2c-4.1-2.8-9-4.3-14.2-4.3-14.4 0-26 11.6-26 26s11.6 26 26 26 26-11.6 26-26c0-.6.4-1 1-1s1 .4 1 1c0 15.5-12.5 28-28 28s-28-12.5-28-28 12.5-28 28-28c5.6 0 10.9 1.7 15.3 4.6L49.7 4c.2-.3.5-.4.8-.4.3 0 .5.1.7.3l8 8c.2.2.3.4.3.7 0 .2-.2.5-.4.7zM31.5 29.5c-1.1 0-2 .9-2 2s.9 2 2 2 2-.9 2-2-.9-2-2-2z"/></svg>