<svg xmlns="http://www.w3.org/2000/svg" viewBox="0 0 64 64"><path fill-rule="evenodd" clip-rule="evenodd" d="M59.5 31.5c0 15.5-12.5 28-28 28-10.2 0-19.1-5.5-24-13.7v10.7c0 .6-.4 1-1 1s-1-.4-1-1v-14c0-.6.4-1 1-1h14c.6 0 1 .4 1 1s-.4 1-1 1H8.4c4.3 8.3 13 14 23.1 14 14.4 0 26-11.6 26-26 0-.6.4-1 1-1s1 .4 1 1zm-3-10h-14c-.6 0-1-.4-1-1s.4-1 1-1h12.1c-4.3-8.3-13-14-23.1-14-14.4 0-26 11.6-26 26 0 .6-.4 1-1 1s-1-.4-1-1c0-15.5 12.5-28 28-28 10.2 0 19.1 5.5 24 13.7V6.5c0-.6.4-1 1-1s1 .4 1 1v14c0 .6-.4 1-1 1z"/></svg>