<svg id="Layer_1" xmlns="http://www.w3.org/2000/svg" width="64" height="64" viewBox="0 0 64 64"><style>.st0{fill:#010101;}</style><path class="st0" d="M31.5 21.5v13h7c.6 0 1 .4 1 1s-.4 1-1 1h-8c-.6 0-1-.4-1-1v-14c0-.6.4-1 1-1s1 .4 1 1zm0 39c-6.1 0-11.8-2-16.4-5.3-.4-.1-.6-.5-.6-.9 0-.6.4-1 1-1 .2 0 .5.1.6.2 4.3 3.2 9.6 5 15.3 5 14.4 0 26-11.6 26-26s-11.6-26-26-26c-13.8 0-22.2 11.6-24.8 16h11.8c.6 0 1 .4 1 1s-.4 1-1 1h-14c-.6 0-1-.4-1-1v-14c0-.6.4-1 1-1s1 .4 1 1v11.3C8.3 16.1 17 4.5 31.4 4.5c15.5 0 28 12.5 28 28 .1 15.5-12.4 28-27.9 28z"/></svg>