<svg id="Layer_1" xmlns="http://www.w3.org/2000/svg" width="64" height="64" viewBox="0 0 64 64"><style>.st0{fill-rule:evenodd;clip-rule:evenodd;}</style><path class="st0" d="M35.5 60.5c-.6 0-1-.4-1-1s.4-1 1-1c12.7 0 23-10.3 23-23 0-.6.4-1 1-1s1 .4 1 1c0 13.8-11.2 25-25 25zm15-25c0-.6.4-1 1-1s1 .4 1 1c0 9.4-7.6 17-17 17-.6 0-1-.4-1-1s.4-1 1-1c8.3 0 15-6.7 15-15zm-11.3-3.3c.8.9 1.3 2 1.3 3.3 0 2.8-2.2 5-5 5-1.3 0-2.4-.5-3.3-1.3l-14 14c-.2.2-.4.3-.7.3-.3 0-.5-.1-.7-.3l-12-12c-.2-.2-.3-.4-.3-.7 0-.3.1-.5.3-.7l14-14-.8-.8c-.9-.9-1.5-2.1-1.5-3.5 0-2.8 2.2-5 5-5 1.4 0 2.6.6 3.5 1.5l.8.8 14-14c.2-.2.4-.3.7-.3s.5.1.7.3l12 12c.2.2.3.4.3.7s-.1.5-.3.7l-14 14zm-3.7 6.3c1.7 0 3-1.3 3-3 0-.8-.3-1.6-.9-2.1l-4.2 4.2c.5.6 1.3.9 2.1.9zm-28.6 2l10.6 10.6 13.3-13.3-10.6-10.6L6.9 40.5zm14.6-22c-1.7 0-3 1.3-3 3 0 .8.3 1.6.9 2.1l4.2-4.2c-.5-.6-1.3-.9-2.1-.9zm2.1.9l-4.2 4.2 14 14 4.2-4.2-14-14zM40.5 6.9L27.2 20.2l10.6 10.6 13.3-13.3L40.5 6.9z"/></svg>