<svg xmlns="http://www.w3.org/2000/svg" viewBox="0 0 64 64"><path d="M55.3 31.5H7.7c-1.2 0-2.2 1-2.2 2.2v8.6c0 1.2 1 2.2 2.2 2.2h47.7c1.2 0 2.2-1 2.2-2.2v-8.6c-.1-1.2-1.1-2.2-2.3-2.2zM9.8 42.3c-1.2 0-2.2-1-2.2-2.2s1-2.2 2.2-2.2 2.2 1 2.2 2.2-1 2.2-2.2 2.2zM46.7 3.5H16.3L5.5 14.3h52L46.7 3.5zm8.6 43.1H7.7c-1.2 0-2.2 1-2.2 2.2v8.6c0 1.2 1 2.2 2.2 2.2h47.7c1.2 0 2.2-1 2.2-2.2v-8.6c-.1-1.3-1.1-2.2-2.3-2.2zM9.8 57.3c-1.2 0-2.2-1-2.2-2.2s1-2.2 2.2-2.2 2.2 1 2.2 2.2c0 1.3-1 2.2-2.2 2.2zm45.5-40.9H7.7c-1.2 0-2.2 1-2.2 2.2v8.6c0 1.2 1 2.2 2.2 2.2h47.7c1.2 0 2.2-1 2.2-2.2v-8.6c-.1-1.2-1.1-2.2-2.3-2.2zM9.8 27.2c-1.2 0-2.2-1-2.2-2.2s1-2.2 2.2-2.2 2.2 1 2.2 2.2-1 2.2-2.2 2.2z"/></svg>