<svg id="Layer_1" xmlns="http://www.w3.org/2000/svg" width="64" height="64" viewBox="0 0 64 64"><style>.st0{fill-rule:evenodd;clip-rule:evenodd;}</style><path class="st0" d="M60.5 18.5c0 .3-.1.5-.3.7l-7 7c-.2.2-.4.3-.7.3h-17v4h13c1.1 0 2 .9 2 2v12c0 1.1-.9 2-2 2h-13v14h-2v-14h-2v14h-2v-14h-17c-.3 0-.5-.1-.7-.3l-7-7c-.2-.2-.3-.4-.3-.7 0-.3.1-.5.3-.7l7-7c.2-.2.4-.3.7-.3h17v-4h-13c-1.1 0-2-.9-2-2v-12c0-1.1.9-2 2-2h13v-3c0-1.7 1.3-3 3-3s3 1.3 3 3v3h17c.3 0 .5.1.7.3l7 7c.2.2.3.4.3.7zm-47.6 14l-6 6 6 6h35.6v-12H12.9zm20.6-2v-4h-2v4h2zm0-23c0-.6-.4-1-1-1s-1 .4-1 1v3h2v-3zm18.6 5H16.5v12h35.6l6-6-6-6z"/></svg>