<svg xmlns="http://www.w3.org/2000/svg" viewBox="0 0 64 64"><path fill-rule="evenodd" clip-rule="evenodd" d="M55.5 59.5h-48c-2.2 0-4-1.8-4-4v-48c0-2.2 1.8-4 4-4h48c2.2 0 4 1.8 4 4v48c0 2.2-1.8 4-4 4zm2-52c0-1.1-.9-2-2-2h-48c-1.1 0-2 .9-2 2v48c0 1.1.9 2 2 2h48c1.1 0 2-.9 2-2v-48zm-7 24h-3v18c0 .6-.4 1-1 1s-1-.4-1-1v-18h-3c-1.1 0-2-.9-2-2v-2c0-1.1.9-2 2-2h3v-12c0-.6.4-1 1-1s1 .4 1 1v12h3c1.1 0 2 .9 2 2v2c0 1.1-.9 2-2 2zm0-4h-8v2h8v-2zm-15 14h-3v8c0 .6-.4 1-1 1s-1-.4-1-1v-8h-3c-1.1 0-2-.9-2-2v-2c0-1.1.9-2 2-2h3v-22c0-.6.4-1 1-1s1 .4 1 1v22h3c1.1 0 2 .9 2 2v2c0 1.1-.9 2-2 2zm0-4h-8v2h8v-2zm-15-10h-3v22c0 .6-.4 1-1 1s-1-.4-1-1v-22h-3c-1.1 0-2-.9-2-2v-2c0-1.1.9-2 2-2h3v-8c0-.6.4-1 1-1s1 .4 1 1v8h3c1.1 0 2 .9 2 2v2c0 1.1-.9 2-2 2zm0-4h-8v2h8v-2z"/></svg>