<svg xmlns="http://www.w3.org/2000/svg" viewBox="0 0 64 64"><path fill-rule="evenodd" clip-rule="evenodd" d="M58.5 32.5h-40v4c0 1.1-.9 2-2 2h-2c-1.1 0-2-.9-2-2v-4h-8c-.6 0-1-.4-1-1s.4-1 1-1h8v-4c0-1.1.9-2 2-2h2c1.1 0 2 .9 2 2v4h40c.6 0 1 .4 1 1s-.4 1-1 1zm-42-6h-2v10h2v-10zm42-15h-8v4c0 1.1-.9 2-2 2h-2c-1.1 0-2-.9-2-2v-4h-40c-.6 0-1-.4-1-1s.4-1 1-1h40v-4c0-1.1.9-2 2-2h2c1.1 0 2 .9 2 2v4h8c.6 0 1 .4 1 1s-.4 1-1 1zm-10-6h-2v10h2v-10zm-44 46h28v-4c0-1.1.9-2 2-2h2c1.1 0 2 .9 2 2v4h20c.6 0 1 .4 1 1s-.4 1-1 1h-20v4c0 1.1-.9 2-2 2h-2c-1.1 0-2-.9-2-2v-4h-28c-.6 0-1-.4-1-1s.4-1 1-1zm30 6h2v-10h-2v10z"/></svg>