<svg xmlns="http://www.w3.org/2000/svg" viewBox="0 0 64 64"><path fill-rule="evenodd" clip-rule="evenodd" d="M35.5 59.5h-8c-18 0-24-6-24-24v-8c0-18 6-24 24-24h8c18 0 24 6 24 24v8c0 18-6 24-24 24zm22-31.7c0-16.7-5.6-22.3-22.3-22.3h-7.4c-16.7 0-22.3 5.6-22.3 22.3v7.4c0 16.7 5.6 22.3 22.3 22.3h7.4c16.7 0 22.3-5.6 22.3-22.3v-7.4zm-16 1.7c-2.2 0-4-1.8-4-4s1.8-4 4-4 4 1.8 4 4-1.8 4-4 4zm0-6c-1.1 0-2 .9-2 2s.9 2 2 2 2-.9 2-2-.9-2-2-2zm.5 16.2c.1-.1.3-.2.5-.2.6 0 1 .4 1 1 0 .4-.2.7-.5.8-.2.1-3.5 3.2-11.5 3.1-8 0-11.3-3-11.5-3.1-.3-.2-.5-.5-.5-.8 0-.6.4-1 1-1 .2 0 .4.1.5.2 0 0 3.5 2.8 10.5 2.9 7-.1 10.4-2.9 10.5-2.9zM21.5 29.5c-2.2 0-4-1.8-4-4s1.8-4 4-4 4 1.8 4 4-1.8 4-4 4zm0-6c-1.1 0-2 .9-2 2s.9 2 2 2 2-.9 2-2-.9-2-2-2z"/></svg>