<svg width="64" height="64" viewBox="0 0 64 64" xmlns="http://www.w3.org/2000/svg"><title>sms</title><path d="M36 4h-8C10 4 4 10 4 28v8c0 18 6 24 24 24h8c18 0 24-6 24-24v-8c0-18-6-24-24-24zm-.285 54h-7.43C11.572 58 6 52.43 6 35.715v-7.428C6 11.572 11.57 6 28.286 6h7.43C52.428 6 58 11.572 58 28.287v7.428C58 52.43 52.43 58 35.715 58zM14 30.64c0 4.924 3.08 9.397 8.077 12.096l-.51-1.045c-.307 1.83-1.39 3.698-3.483 5.567L16.126 49h2.624c.435 0 1.164-.044 2.093-.175 1.544-.218 3.09-.61 4.546-1.224 1.68-.71 3.13-1.674 4.27-2.934l-.9.316c1.23.2 2.48.3 3.74.3 10.17 0 18.5-6.49 18.5-14.64S42.67 16 32.5 16 14 22.492 14 30.64zm35 0c0 6.92-7.34 12.64-16.5 12.64-1.153 0-2.297-.093-3.42-.275l-.537-.087-.365.404c-.926 1.027-2.136 1.832-3.567 2.436-1.28.54-2.66.89-4.044 1.086 0 0 2.592-2.533 2.976-4.823l.118-.7-.63-.34C18.638 38.607 16 34.773 16 30.64 16 23.72 23.34 18 32.5 18S49 23.72 49 30.64z"/></svg>