<svg id="Layer_1" xmlns="http://www.w3.org/2000/svg" width="64" height="64" viewBox="0 0 64 64"><style>.st0{fill-rule:evenodd;clip-rule:evenodd;}</style><path class="st0" d="M58.5 34.5c0 14.4-11.6 26-26 26s-26-11.6-26-26c0-6.1 2.1-11.7 5.6-16.1L11 17.3c-.8-.8-.8-2 0-2.8l1.4-1.4c.8-.8 2-.8 2.8 0l1.1 1.1c3.7-2.9 8.2-4.9 13.1-5.4V6.5h-1c-.6 0-1-.4-1-1s.4-1 1-1h8c.6 0 1 .4 1 1s-.4 1-1 1h-1v2.2c13 1.5 23.1 12.5 23.1 25.8zm-44.6-20l-1.4 1.4 1 1c.5-.5.9-1 1.4-1.4l-1-1zm19.6-8h-2v2.1c.3 0 .7-.1 1-.1s.7 0 1 .1V6.5zm-1 4c-13.3 0-24 10.7-24 24s10.7 24 24 24 24-10.7 24-24-10.7-24-24-24zm17.3 14c.3.5.1 1.1-.4 1.4-.5.3-1.1.1-1.4-.4-.3-.5-.1-1.1.4-1.4.5-.2 1.1-.1 1.4.4zm-13.9 8c.4.6.6 1.3.6 2 0 2.2-1.8 4-4 4s-4-1.8-4-4 1.8-4 4-4c.7 0 1.4.2 2 .6l9.3-9.3c.4-.4 1-.4 1.4 0 .4.4.4 1 0 1.4l-9.3 9.3zm-3.4 0c-1.1 0-2 .9-2 2s.9 2 2 2 2-.9 2-2-.9-2-2-2zm9-13.6c-.5-.3-.6-.9-.4-1.4.3-.5.9-.6 1.4-.4.5.3.6.9.4 1.4-.3.5-.9.7-1.4.4zm-9-2.4c-.6 0-1-.4-1-1s.4-1 1-1 1 .4 1 1-.4 1-1 1zm-10 35.3c-.5-.3-.6-.9-.4-1.4.3-.5.9-.6 1.4-.4.5.3.6.9.4 1.4-.3.5-.9.7-1.4.4zm1-32.9c-.5.3-1.1.1-1.4-.4-.3-.5-.1-1.1.4-1.4.5-.3 1.1-.1 1.4.4.2.5.1 1.1-.4 1.4zm-7 26c-.5.3-1.1.1-1.4-.4-.3-.5-.1-1.1.4-1.4.5-.3 1.1-.1 1.4.4.3.5.1 1.1-.4 1.4zm-1-19c-.5-.3-.6-.9-.4-1.4.3-.5.9-.6 1.4-.4.5.3.6.9.4 1.4-.3.5-.9.6-1.4.4zm-2 9.6c-.6 0-1-.4-1-1s.4-1 1-1 1 .4 1 1-.4 1-1 1zm19 17c.6 0 1 .4 1 1s-.4 1-1 1-1-.4-1-1 .4-1 1-1zm9-2.4c.5-.3 1.1-.1 1.4.4.3.5.1 1.1-.4 1.4-.5.3-1.1.1-1.4-.4-.2-.5-.1-1.1.4-1.4zm8-7c.5.3.6.9.4 1.4-.3.5-.9.6-1.4.4-.5-.3-.6-.9-.4-1.4.3-.5.9-.6 1.4-.4zm2-9.6c.6 0 1 .4 1 1s-.4 1-1 1-1-.4-1-1 .4-1 1-1z"/></svg>