<svg xmlns="http://www.w3.org/2000/svg" viewBox="0 0 64 64"><path fill-rule="evenodd" clip-rule="evenodd" d="M58.5 32.5h-3.1C54.9 45 45 54.9 32.5 55.5v3c0 .6-.4 1-1 1s-1-.4-1-1v-3C18 54.9 8.1 45 7.6 32.5H4.5c-.6 0-1-.4-1-1s.4-1 1-1h3.1C8.1 18 18 8.1 30.5 7.5v-3c0-.6.4-1 1-1s1 .4 1 1v3c12.5.6 22.4 10.5 22.9 23h3.1c.6 0 1 .4 1 1s-.4 1-1 1zm-26-23v3c0 .6-.4 1-1 1s-1-.4-1-1v-3c-11.3.5-20.4 9.6-20.9 21h2.9c.6 0 1 .4 1 1s-.4 1-1 1H9.6c.5 11.3 9.6 20.4 20.9 21v-3c0-.6.4-1 1-1s1 .4 1 1v3c11.3-.5 20.4-9.6 20.9-21h-2.9c-.6 0-1-.4-1-1s.4-1 1-1h2.9c-.5-11.3-9.6-20.4-20.9-21zm-1 28c-3.3 0-6-2.7-6-6s2.7-6 6-6 6 2.7 6 6-2.7 6-6 6zm0-10c-2.2 0-4 1.8-4 4s1.8 4 4 4 4-1.8 4-4-1.8-4-4-4z"/></svg>