<svg viewBox="0 0 64 64" xmlns="http://www.w3.org/2000/svg" fill-rule="evenodd" clip-rule="evenodd" stroke-linejoin="round" stroke-miterlimit="1.414"><path d="M40.01 45.607c-.938-.425-1.822-.826-2.454-1.246-.583-.39-1.13-.703-1.632-.993-2.007-1.16-2.923-1.69-2.923-5.173 0-4.363 3.576-7.18 3.61-7.206l.187-.144.104-.21c1.2-2.452.613-4.52.214-5.45 2.605-5.774-.548-10.552-1.217-11.465-1.696-4.88-5.313-5.91-8.063-5.91-3.26 0-6.157 1.43-6.203 1.455-3.016 1.207-5.073 3.133-6.113 5.724-1.68 4.183-.156 8.78.396 10.19-1.354 3.267.207 5.5.276 5.597l.21.215c.036.028 3.602 2.785 3.602 7.203 0 4.28-2.345 5.062-5.315 6.052l-.39.128c-3.34 1.1-10.294 3.386-10.294 10.82v1h44.02l-.02-1.02c-.106-6-4.663-8.06-7.99-9.567zm19.97 5.585c-.093-5.268-4.044-7.068-6.93-8.383-.795-.364-1.547-.706-2.077-1.063-.502-.337-.972-.61-1.405-.863-1.717-1-2.427-1.41-2.427-4.327 0-3.682 3.004-6.067 3.03-6.09l.19-.146.103-.212c1.024-2.11.562-3.905.21-4.76 2.197-4.984-.46-9.11-1.07-9.958-1.483-4.27-4.637-5.174-7.037-5.174-2.824 0-5.336 1.247-5.364 1.267-.036.015-.066.036-.103.052.205.414.405.835.574 1.292 1.034 1.526 3.846 6.478 1.566 12.437.438 1.445.696 3.7-.562 6.274l-.31.636-.562.43c-.01.008-2.824 2.278-2.824 5.618 0 2.33.182 2.435 1.924 3.44.537.31 1.12.647 1.74 1.063.497.33 1.31.697 2.17 1.087 2.874 1.3 7.382 3.358 8.75 8.408H60l-.017-1.03z" fill-rule="nonzero"/></svg>