<svg xmlns="http://www.w3.org/2000/svg" viewBox="0 0 64 64"><path fill-rule="evenodd" clip-rule="evenodd" d="M31.5 59.5c-14.9 0-27-12.1-27-27 0-3.2.6-6.2 1.6-9.1 0-.6.4-1 1-1s1 .4 1 1c0 .2 0 .3-.1.4h.1c-1 2.7-1.6 5.6-1.6 8.6 0 13.8 11.2 25 25 25s25-11.2 25-25c0-10.4-6.4-19.3-15.4-23.1-.4-.2-.6-.5-.6-.9 0-.6.4-1 1-1 .2 0 .3.1.5.1 9.7 4.1 16.5 13.7 16.5 24.9 0 15-12.1 27.1-27 27.1zm-2.8-24.2c-2.8-2.8-16.3-22-16.3-22s19.1 13.5 22 16.3c1.6 1.6 1.6 4.1 0 5.7-1.6 1.6-4.2 1.6-5.7 0zm2.8-25.8c-1.7 0-3-1.3-3-3s1.3-3 3-3 3 1.3 3 3-1.3 3-3 3zm0-4c-.6 0-1 .4-1 1s.4 1 1 1 1-.4 1-1-.4-1-1-1z"/></svg>