<svg xmlns="http://www.w3.org/2000/svg" viewBox="0 0 64 64"><path fill-rule="evenodd" clip-rule="evenodd" d="M51.5 11.5h-1l-4 44c0 2.2-1.8 4-4 4h-22c-2.2 0-4-1.8-4-4l-4-44h-1c-.6 0-1-.4-1-1s.4-1 1-1h11v-2c0-2.2 1.8-4 4-4h10c2.2 0 4 1.8 4 4v2h11c.6 0 1 .4 1 1s-.4 1-1 1zm-13-4c0-1.1-.9-2-2-2h-10c-1.1 0-2 .9-2 2v2h14v-2zm2 4h-26l4 44c0 1.1.9 2 2 2h22c1.1 0 2-.9 2-2l4-44h-8zm-2.1 42c-.6 0-1-.5-.9-1.1l2-35.9c0-.6.5-1 1.1-.9.6 0 1 .5.9 1.1l-2 35.9c0 .5-.5.9-1.1.9zm-6.9 0c-.6 0-1-.4-1-1v-36c0-.6.4-1 1-1s1 .4 1 1v36c0 .6-.4 1-1 1zm-6.9 0c-.6 0-1-.4-1.1-.9l-2-36c0-.6.4-1 .9-1.1.6 0 1 .4 1.1.9l2 36c0 .6-.4 1.1-.9 1.1z"/></svg>