<svg xmlns="http://www.w3.org/2000/svg" viewBox="0 0 64 64"><path d="M58.7 15.4c-2 .9-4.1 1.5-6.3 1.7 2.3-1.4 4-3.5 4.8-6.1-2.1 1.3-4.5 2.2-7 2.7-2-2.1-4.8-3.5-8-3.5-6.1 0-11 4.9-11 11 0 .9.1 1.7.3 2.5-9-.4-17.1-4.8-22.5-11.4-.9 1.6-1.5 3.5-1.5 5.5 0 3.8 1.9 7.2 4.9 9.1-1.8-.1-3.5-.5-5-1.4v.1c0 5.3 3.8 9.7 8.8 10.7-.9.3-1.9.4-2.9.4-.7 0-1.4-.1-2.1-.2 1.4 4.4 5.4 7.5 10.2 7.6-3.8 2.9-8.5 4.7-13.6 4.7-.9 0-1.8-.1-2.6-.2 4.9 3.1 10.6 4.9 16.8 4.9 20.2 0 31.2-16.7 31.2-31.2v-1.4c2.2-1.3 4-3.3 5.5-5.5z"/></svg>