<svg xmlns="http://www.w3.org/2000/svg" viewBox="0 0 64 64"><path fill-rule="evenodd" clip-rule="evenodd" d="M49.1 52.5c-.2-.7-.5-1.4-.8-2h9.1c-.5-3.2-3.2-4.4-5.7-5.5-.9-.4-1.7-.8-2.4-1.2-.5-.3-.9-.6-1.3-.8-1.8-1.1-3.4-2-3.4-6.1s2.8-6.8 3.6-7.5c.8-1.8 0-3.1 0-3.1l-.3-.5.2-.5c2.2-4.5-.6-8.2-.7-8.4l-.1-.1-.1-.2c-.9-2.7-2.6-3.9-5.2-3.9-2.4 0-4.5 1.1-4.5 1.1-.1-.2-.2-.4-.3-.5-.2-.5-.4-.9-.6-1.3 0 0 .1 0 .1-.1 0 0 2.5-1.3 5.4-1.3 2.4 0 5.6.9 7 5.2.6.8 3.3 5 1.1 10 .4.9.8 2.6-.2 4.8l-.1.2-.2.1s-3 2.4-3 6.1c0 2.9.7 3.3 2.4 4.3.4.3.9.5 1.4.9.5.4 1.3.7 2.1 1.1 2.9 1.3 6.8 3.1 6.9 8.4v1H49.1zm-12.5-27c.4.9 1 3-.2 5.4l-.1.2-.2.1s-3.6 2.8-3.6 7.2c0 3.5.9 4 2.9 5.2.5.3 1 .6 1.6 1 .6.4 1.5.8 2.5 1.2 3.3 1.5 7.9 3.6 8 9.6v1h-44v-1c0-7.4 7-9.7 10.3-10.8l.4-.1c3-1 5.3-1.8 5.3-6.1 0-4.4-3.6-7.2-3.6-7.2l-.2-.2c-.1-.1-1.6-2.3-.3-5.6-.6-1.4-2.1-6-.4-10.2 1-2.6 3.1-4.5 6.1-5.7 0 0 2.9-1.5 6.2-1.5 2.8 0 6.4 1 8.1 5.9.7 1 3.8 5.8 1.2 11.6zm-2.9-10.4l-.1-.1-.1-.2c-1.1-3.2-3.1-4.7-6.2-4.7-2.8 0-5.4 1.3-5.4 1.3-2.6 1-4.2 2.6-5.1 4.6-1.7 4.1.5 9 .5 9l.2.4-.2.4c-1 2.1-.4 3.5-.1 3.9.8.7 4.2 3.8 4.2 8.7 0 5.7-3.7 7-6.7 7.9l-.4.1c-2.9 1-8.3 2.7-8.9 7.9h39.9c-.5-4-3.8-5.4-6.7-6.8-1-.5-2-.9-2.7-1.4-.5-.4-1.1-.7-1.5-.9-2.4-1.4-3.9-2.5-3.9-6.9 0-4.8 3.3-7.9 4.2-8.6 1-2.2 0-3.8 0-3.8l-.3-.5.3-.5c2.6-5.2-1-9.8-1-9.8z"/></svg>