<svg xmlns="http://www.w3.org/2000/svg" viewBox="0 0 64 64"><path fill-rule="evenodd" clip-rule="evenodd" d="M53.8 35.7c5.9 2 5.7 5 5.7 6.1V44c0 1-.8 1.5-1.5 1.5h-2.6c-.2-.7-.5-1.4-1-2 0 0-2.8-3.2-10.3-6-1-.4-1.8-.7-2.8-1 .6-.3 1.2-.5 2-.8.7-.3 1.1-.7 1.2-1.2.2-.8-.1-1.7-.3-1.9 0 0-1.7-1.8-1.7-5.9 0-1.8-.1-7.3 6-7.3 6.2 0 6 5.5 6 7.3 0 4-1.5 5.9-1.6 5.9-.2.2-.5 1.1-.3 1.9.1.5.5.9 1.2 1.2zm-16.1-3.1s-1.5 1.7-1.1 3.3c.2.8 1.1 1.5 2.3 2.1 9.2 2.8 14.7 6.1 14.7 8.7v2.1c0 1.2-.9 1.8-1.8 1.8H11.3c-.9 0-1.8-.6-1.8-1.8v-2.1c0-2.6 5.5-5.9 14.7-8.7 1.2-.5 2.1-1.2 2.3-2.1.4-1.6-1.2-3.3-1.2-3.3s-2.8-1.9-2.8-7.7c0-4.4 1.2-10.3 9-10.3s9 5.9 9 10.3c0 5.7-2.7 7.5-2.8 7.7zm-17.9 3.1c.7.2 1.4.5 2 .8-1 .3-1.8.6-2.8 1-7.5 2.8-10.3 6-10.3 6-.5.7-.8 1.3-1 2H5c-.7 0-1.5-.5-1.5-1.5v-2.1c0-1.1-.2-4.2 5.7-6.1.7-.3 1.2-.7 1.3-1.2.2-.7-.1-1.7-.3-1.9-.1-.1-1.6-1.9-1.6-5.9 0-1.8-.2-7.3 6-7.3s6 5.5 6 7.3c0 4-1.6 5.9-1.7 5.9-.2.2-.4 1.2-.3 1.9.1.4.5.8 1.2 1.1z"/></svg>