<svg xmlns="http://www.w3.org/2000/svg" viewBox="0 0 64 64"><path fill-rule="evenodd" clip-rule="evenodd" d="M57.5 55.5h-52c-1 0-2-.7-2-2v-4c0-3.2 7.1-7.4 18.7-10.9 1.7-.7 2.7-1.7 3-2.9.5-2.1-1.4-4.5-1.4-4.5-.1-.1-3.2-3.3-3.2-10.6 0-5.6 1.1-13 11-13s11 7.4 11 13c0 7.3-3.2 10.6-3.3 10.7 0 0-1.9 2.3-1.3 4.5.3 1.2 1.3 2.1 3 2.9 11.5 3.5 18.7 7.7 18.7 10.9v4c-.2 1.2-1.2 1.9-2.2 1.9zm-26-46c-6.4 0-9 3.2-9 11 0 6.4 2.7 9.3 2.7 9.3.2.2 2.6 3.2 1.9 6.3-.4 1.8-1.9 3.3-4.2 4.3h-.1c-14.4 4.4-17.3 8.3-17.3 9v4h52v-4c0-.8-2.9-4.6-17.3-9h-.1c-2.3-1-3.8-2.4-4.2-4.3-.8-3.1 1.7-6.1 1.8-6.3.1-.1 2.8-2.9 2.8-9.4 0-7.7-2.6-10.9-9-10.9z"/></svg>