<svg xmlns="http://www.w3.org/2000/svg" width="64" height="64" viewBox="0 0 64 64"><path d="M31 42c-5.5 0-9.9 4.4-9.9 9.9s4.4 9.9 9.9 9.9 9.9-4.4 9.9-9.9S36.5 42 31 42zm-1.8 4.9c.9 0 1.6.7 1.6 1.6 0 .9-.7 1.6-1.6 1.6-.9 0-1.6-.7-1.6-1.6 0-.9.7-1.6 1.6-1.6zm3.3 11.4c-3 0-5.4-2.4-5.4-5.4h10.8c0 3-2.4 5.4-5.4 5.4zm4-7.8c-.8 0-1.5-.7-1.5-1.5s.7-1.5 1.5-1.5 1.5.7 1.5 1.5-.7 1.5-1.5 1.5z"/><path d="M15.5 43.3c-4.4 0-8 3.6-8 8s3.6 8 8 8 8-3.6 8-8-3.6-8-8-8zm-3.7 3.6c.6 0 1.2.5 1.2 1.2 0 .6-.5 1.2-1.2 1.2-.6 0-1.2-.5-1.2-1.2s.5-1.2 1.2-1.2zm1.8 9.3c-2.4-.4-4.1-2.8-3.6-5.2l8.9 1.6c-.5 2.4-2.8 4-5.3 3.6zm4.2-5.7c-.7 0-1.3-.6-1.3-1.3 0-.7.6-1.3 1.3-1.3.7 0 1.4.6 1.4 1.3-.1.7-.7 1.3-1.4 1.3zm14.3-21.4c6.4 6.4 13.1 12.3 20.2 17.9.1-1.4-.3-2.9-1.4-4-1.3-1.3-3.2-1.7-4.9-1.3.8-2.4.2-5.1-1.7-7.1-2-2-4.9-2.5-7.4-1.6.8-2.4.2-5.2-1.7-7.1-1.9-1.9-4.6-2.5-7.1-1.7.9-2.5.4-5.4-1.6-7.4-1.9-1.9-4.5-2.5-6.9-1.8.4-1.6 0-3.4-1.3-4.7-1.1-1.1-2.6-1.6-4-1.4 5.5 7.1 11.5 13.8 17.8 20.2z"/><path d="M30.2 31C21.2 22 13 12.3 5.8 2.3c-2.7 13.5.9 28.1 10.7 39 2.1.2 4.1 1.1 5.6 2.5 2.2-2.3 5.3-3.8 8.8-3.8 6.7 0 12 5.4 12 12 0 1.3-.2 2.5-.6 3.6 5.4.9 11 .9 16.5-.2C48.9 48.1 39.3 40 30.2 31z"/></svg>