<svg xmlns="http://www.w3.org/2000/svg" viewBox="0 0 64 64"><path fill="#010101" d="M20 8.7c-17 3-22.6 22.2-9.1 30.8.8.4.8.4-.3 3.7l-1 2.9 3.4-1.8 3.4-1.8 1.8.4c1.9.4 4.3.8 6 .8h1l-.3-1.2C22.1 32.7 31.2 23 43.1 23h1.6l-.3-1.1C41.8 12.7 30.8 6.8 20 8.7zm-1.5 8.6c1.8 1.2 1.9 3.8.2 4.9-2.8 1.8-6.1-1.3-4.2-4.2.7-1.2 2.8-1.5 4-.7zm14.4 0c2.9 2 .8 6.5-2.6 5.3-2.4-.9-2.7-4.2-.4-5.4.9-.5 2.2-.5 3 .1zm6.5 7.2c-8.3 1.6-14.2 7.9-13.8 15.2.4 9.8 11.9 16.5 22.9 13.5l1.3-.3 2.7 1.5c1.5.8 2.8 1.5 2.8 1.3 0-.1-.2-1.1-.7-2.4-.9-2.7-.9-2.5.2-3.4 13.3-9.5 1.7-28.5-15.4-25.4zm-.3 7.8c.8.4 1.1 1.7.8 2.6-.7 1.9-3.5 2-4.3.2-.9-2 1.5-4 3.5-2.8zm11.7.3c1.1 1.1 1 3-.3 3.7-2 1-4.3-1-3.1-3 .5-1.4 2.4-1.7 3.4-.7z"/></svg>