<svg xmlns="http://www.w3.org/2000/svg" width="64" height="64" viewBox="0 0 64 64"><path d="M56 56H18c-2.2 0-4-1.8-4-4v-3c0-.6.4-1 1-1s1 .4 1 1v3c0 1.1.9 2 2 2h38c1.1 0 2-.9 2-2V30h-5c-.6 0-1-.4-1-1s.4-1 1-1h5v-6c0-1.1-.9-2-2-2h-3c-.6 0-1-.4-1-1s.4-1 1-1h3c2.2 0 4 1.8 4 4v30c0 2.2-1.8 4-4 4zM46 46H8c-2.2 0-4-1.8-4-4V12c0-2.2 1.8-4 4-4h38c2.2 0 4 1.8 4 4v30c0 2.2-1.8 4-4 4zm2-34c0-1.1-.9-2-2-2H8c-1.1 0-2 .9-2 2v6h42v-6zm0 8H6v22c0 1.1.9 2 2 2h38c1.1 0 2-.9 2-2V20zm-38-8c1.1 0 2 .9 2 2s-.9 2-2 2-2-.9-2-2 .9-2 2-2zm6 0c1.1 0 2 .9 2 2s-.9 2-2 2-2-.9-2-2 .9-2 2-2zm6 0c1.1 0 2 .9 2 2s-.9 2-2 2-2-.9-2-2 .9-2 2-2z"/></svg>