<svg id="Layer_1" xmlns="http://www.w3.org/2000/svg" width="64" height="64" viewBox="0 0 64 64"><style>.st0{fill-rule:evenodd;clip-rule:evenodd;}</style><path class="st0" d="M54.4 34.3c-5.2 5.2-11.7 5.2-17.5 1.9L17.7 57.6c-1.5 1.8-3.7 2.9-6.2 2.9-4.4 0-8-3.6-8-8 0-2.2.9-4.2 2.3-5.7.2-.2.4-.4.6-.5L27.8 27c-3.3-5.8-3.3-12.3 1.9-17.5 4.7-4.7 11.4-6.1 17.4-4.3.1 0 .2.1.3.1.3.1.5.2.8.3.3.1.7.2 1.1.4l-8 8c-2.4 2.4-2.4 6.3 0 8.7 2.4 2.4 6.3 2.4 8.7 0l7.9-7.9c.2.3.3.7.4 1.1.1.2.2.5.3.7 0 .1.1.2.1.3 1.9 6 .4 12.7-4.3 17.4zm-47.1 14c-1.1 1.1-1.8 2.6-1.8 4.2 0 3.3 2.7 6 6 6 1.7 0 3.2-.7 4.2-1.8l19.5-21.6c-1.2-.8-2.4-1.8-3.5-2.9-1.1-1.1-2.1-2.3-2.9-3.5L7.3 48.3zm49.8-29.7l-5.6 5.6c-3.2 3.2-8.4 3.2-11.6 0-3.2-3.2-3.2-8.4 0-11.6L45.4 7c-5-1.2-10.3.1-14.1 3.9-5.9 5.9-4.1 13.8 2 19.9 6 6 13.9 7.9 19.9 2 3.7-3.9 5-9.2 3.9-14.2zM11.5 54.5c-1.1 0-2-.9-2-2s.9-2 2-2 2 .9 2 2-.9 2-2 2z"/></svg>